<svg  width="223" height="148" viewBox="0 0 223 148" fill="none" xmlns="http://www.w3.org/2000/svg">
<path d="M222 138H1C0.734784 138 0.480444 137.895 0.292908 137.707C0.105371 137.52 0 137.265 0 137C0 136.735 0.105371 136.48 0.292908 136.293C0.480444 136.105 0.734784 136 1 136H222C222.265 136 222.52 136.105 222.707 136.293C222.895 136.48 223 136.735 223 137C223 137.265 222.895 137.52 222.707 137.707C222.52 137.895 222.265 138 222 138Z" fill="#E6E6E6"/>
<path d="M173.598 138H48C47.7348 138 47.4804 137.895 47.2929 137.707C47.1054 137.52 47 137.265 47 137C47 136.735 47.1054 136.48 47.2929 136.293C47.4804 136.105 47.7348 136 48 136H173.598C173.864 136 174.118 136.105 174.306 136.293C174.493 136.48 174.598 136.735 174.598 137C174.598 137.265 174.493 137.52 174.306 137.707C174.118 137.895 173.864 138 173.598 138Z" fill="#3F3D56"/>
<path d="M112 138C111.735 138 111.48 137.895 111.293 137.707C111.105 137.52 111 137.265 111 137V74C111 73.7348 111.105 73.4804 111.293 73.2929C111.48 73.1054 111.735 73 112 73C112.265 73 112.52 73.1054 112.707 73.2929C112.895 73.4804 113 73.7348 113 74V137C113 137.265 112.895 137.52 112.707 137.707C112.52 137.895 112.265 138 112 138V138Z" fill="#3F3D56"/>
<path d="M175 138C174.735 138 174.48 137.895 174.293 137.707C174.105 137.52 174 137.265 174 137V11C174 10.7348 174.105 10.4804 174.293 10.2929C174.48 10.1054 174.735 10 175 10C175.265 10 175.52 10.1054 175.707 10.2929C175.895 10.4804 176 10.7348 176 11V137C176 137.265 175.895 137.52 175.707 137.707C175.52 137.895 175.265 138 175 138V138Z" fill="#3F3D56"/>
<path d="M222 12H1C0.734784 12 0.480444 11.8946 0.292908 11.7071C0.105371 11.5196 0 11.2652 0 11C0 10.7348 0.105371 10.4804 0.292908 10.2929C0.480444 10.1054 0.734784 10 1 10H222C222.265 10 222.52 10.1054 222.707 10.2929C222.895 10.4804 223 10.7348 223 11C223 11.2652 222.895 11.5196 222.707 11.7071C222.52 11.8946 222.265 12 222 12Z" fill="#E6E6E6"/>
<path d="M222 75H1C0.734784 75 0.480444 74.8946 0.292908 74.7071C0.105371 74.5196 0 74.2652 0 74C0 73.7348 0.105371 73.4804 0.292908 73.2929C0.480444 73.1054 0.734784 73 1 73H222C222.265 73 222.52 73.1054 222.707 73.2929C222.895 73.4804 223 73.7348 223 74C223 74.2652 222.895 74.5196 222.707 74.7071C222.52 74.8946 222.265 75 222 75Z" fill="#E6E6E6"/>
<path d="M48.5 148C54.5751 148 59.5 143.075 59.5 137C59.5 130.925 54.5751 126 48.5 126C42.4249 126 37.5 130.925 37.5 137C37.5 143.075 42.4249 148 48.5 148Z" fill="#220F4A"/>
<path d="M112 85C118.075 85 123 80.0751 123 74C123 67.9249 118.075 63 112 63C105.925 63 101 67.9249 101 74C101 80.0751 105.925 85 112 85Z" fill="#6C63FF"/>
<path d="M112 148C118.075 148 123 143.075 123 137C123 130.925 118.075 126 112 126C105.925 126 101 130.925 101 137C101 143.075 105.925 148 112 148Z" fill="#6C63FF"/>
<path d="M175 22C181.075 22 186 17.0751 186 11C186 4.92487 181.075 0 175 0C168.925 0 164 4.92487 164 11C164 17.0751 168.925 22 175 22Z" fill="#220F4A"/>
<path d="M175 85C181.075 85 186 80.0751 186 74C186 67.9249 181.075 63 175 63C168.925 63 164 67.9249 164 74C164 80.0751 168.925 85 175 85Z" fill="#6C63FF"/>
<path d="M175 148C181.075 148 186 143.075 186 137C186 130.925 181.075 126 175 126C168.925 126 164 130.925 164 137C164 143.075 168.925 148 175 148Z" fill="#220F4A"/>
</svg>
