<svg width="125" height="163" viewBox="0 0 125 163" fill="none" xmlns="http://www.w3.org/2000/svg">
<path d="M116.043 17.4327C120.99 17.4327 125 13.5303 125 8.71636C125 3.90245 120.99 0 116.043 0C111.097 0 107.087 3.90245 107.087 8.71636C107.087 13.5303 111.097 17.4327 116.043 17.4327Z" fill="#6C63FF"/>
<path d="M80.3479 17.4327C85.2945 17.4327 89.3045 13.5303 89.3045 8.71636C89.3045 3.90245 85.2945 0 80.3479 0C75.4013 0 71.3914 3.90245 71.3914 8.71636C71.3914 13.5303 75.4013 17.4327 80.3479 17.4327Z" fill="#6C63FF"/>
<path d="M44.6524 17.4327C49.5989 17.4327 53.6089 13.5303 53.6089 8.71636C53.6089 3.90245 49.5989 0 44.6524 0C39.7058 0 35.6958 3.90245 35.6958 8.71636C35.6958 13.5303 39.7058 17.4327 44.6524 17.4327Z" fill="#6C63FF"/>
<path d="M8.95655 17.4327C13.9031 17.4327 17.9131 13.5303 17.9131 8.71636C17.9131 3.90245 13.9031 0 8.95655 0C4.00998 0 0 3.90245 0 8.71636C0 13.5303 4.00998 17.4327 8.95655 17.4327Z" fill="#6C63FF"/>
<path d="M116.043 53.8245C120.99 53.8245 125 49.922 125 45.1081C125 40.2942 120.99 36.3917 116.043 36.3917C111.097 36.3917 107.087 40.2942 107.087 45.1081C107.087 49.922 111.097 53.8245 116.043 53.8245Z" fill="#6C63FF"/>
<path d="M80.3479 53.8245C85.2945 53.8245 89.3045 49.922 89.3045 45.1081C89.3045 40.2942 85.2945 36.3917 80.3479 36.3917C75.4013 36.3917 71.3914 40.2942 71.3914 45.1081C71.3914 49.922 75.4013 53.8245 80.3479 53.8245Z" fill="#6C63FF"/>
<path d="M44.6524 53.8245C49.5989 53.8245 53.6089 49.922 53.6089 45.1081C53.6089 40.2942 49.5989 36.3917 44.6524 36.3917C39.7058 36.3917 35.6958 40.2942 35.6958 45.1081C35.6958 49.922 39.7058 53.8245 44.6524 53.8245Z" fill="#6C63FF"/>
<path d="M8.95655 53.8245C13.9031 53.8245 17.9131 49.922 17.9131 45.1081C17.9131 40.2942 13.9031 36.3917 8.95655 36.3917C4.00998 36.3917 0 40.2942 0 45.1081C0 49.922 4.00998 53.8245 8.95655 53.8245Z" fill="#6C63FF"/>
<path d="M116.043 90.2164C120.99 90.2164 125 86.314 125 81.5001C125 76.6861 120.99 72.7837 116.043 72.7837C111.097 72.7837 107.087 76.6861 107.087 81.5001C107.087 86.314 111.097 90.2164 116.043 90.2164Z" fill="#6C63FF"/>
<path d="M80.3479 90.2164C85.2945 90.2164 89.3045 86.314 89.3045 81.5001C89.3045 76.6861 85.2945 72.7837 80.3479 72.7837C75.4013 72.7837 71.3914 76.6861 71.3914 81.5001C71.3914 86.314 75.4013 90.2164 80.3479 90.2164Z" fill="#6C63FF"/>
<path d="M44.6524 90.2164C49.5989 90.2164 53.6089 86.314 53.6089 81.5001C53.6089 76.6861 49.5989 72.7837 44.6524 72.7837C39.7058 72.7837 35.6958 76.6861 35.6958 81.5001C35.6958 86.314 39.7058 90.2164 44.6524 90.2164Z" fill="#6C63FF"/>
<path d="M8.95655 90.2164C13.9031 90.2164 17.9131 86.314 17.9131 81.5001C17.9131 76.6861 13.9031 72.7837 8.95655 72.7837C4.00998 72.7837 0 76.6861 0 81.5001C0 86.314 4.00998 90.2164 8.95655 90.2164Z" fill="#6C63FF"/>
<path d="M116.043 126.608C120.99 126.608 125 122.706 125 117.892C125 113.078 120.99 109.175 116.043 109.175C111.097 109.175 107.087 113.078 107.087 117.892C107.087 122.706 111.097 126.608 116.043 126.608Z" fill="#6C63FF"/>
<path d="M80.3479 126.608C85.2945 126.608 89.3045 122.706 89.3045 117.892C89.3045 113.078 85.2945 109.175 80.3479 109.175C75.4013 109.175 71.3914 113.078 71.3914 117.892C71.3914 122.706 75.4013 126.608 80.3479 126.608Z" fill="#6C63FF"/>
<path d="M44.6524 126.608C49.5989 126.608 53.6089 122.706 53.6089 117.892C53.6089 113.078 49.5989 109.175 44.6524 109.175C39.7058 109.175 35.6958 113.078 35.6958 117.892C35.6958 122.706 39.7058 126.608 44.6524 126.608Z" fill="#6C63FF"/>
<path d="M8.95655 126.608C13.9031 126.608 17.9131 122.706 17.9131 117.892C17.9131 113.078 13.9031 109.175 8.95655 109.175C4.00998 109.175 0 113.078 0 117.892C0 122.706 4.00998 126.608 8.95655 126.608Z" fill="#6C63FF"/>
<path d="M116.043 163C120.99 163 125 159.098 125 154.284C125 149.47 120.99 145.567 116.043 145.567C111.097 145.567 107.087 149.47 107.087 154.284C107.087 159.098 111.097 163 116.043 163Z" fill="#6C63FF"/>
<path d="M80.3479 163C85.2945 163 89.3045 159.098 89.3045 154.284C89.3045 149.47 85.2945 145.567 80.3479 145.567C75.4013 145.567 71.3914 149.47 71.3914 154.284C71.3914 159.098 75.4013 163 80.3479 163Z" fill="#6C63FF"/>
<path d="M44.6524 163C49.5989 163 53.6089 159.098 53.6089 154.284C53.6089 149.47 49.5989 145.567 44.6524 145.567C39.7058 145.567 35.6958 149.47 35.6958 154.284C35.6958 159.098 39.7058 163 44.6524 163Z" fill="#6C63FF"/>
<path d="M8.95655 163C13.9031 163 17.9131 159.098 17.9131 154.284C17.9131 149.47 13.9031 145.567 8.95655 145.567C4.00998 145.567 0 149.47 0 154.284C0 159.098 4.00998 163 8.95655 163Z" fill="#6C63FF"/>
</svg>
