<svg width="70" height="42" viewBox="0 0 70 42" fill="none" xmlns="http://www.w3.org/2000/svg">
<ellipse cx="61.0563" cy="7.5657" rx="8.05625" ry="7.5657" fill="#30A851"/>
<path d="M6.44922 21.9082L16.8203 25.8457V30.1172L2.10742 23.5605V20.168L16.8203 13.6289V17.9004L6.44922 21.9082ZM22.709 35.1973H19.3516L29.4238 7.40625H32.7812L22.709 35.1973ZM46.668 21.8203L35.8047 17.8301V13.6289L50.9922 20.168V23.5605L35.8047 30.0996V25.8984L46.668 21.8203Z" fill="#30A851"/>
<path d="M6.44922 21.9082L5.7283 20.0427L0.858011 21.9247L5.73934 23.778L6.44922 21.9082ZM16.8203 25.8457H18.8203V24.4657L17.5302 23.9759L16.8203 25.8457ZM16.8203 30.1172L16.0062 31.944L18.8203 33.1981V30.1172H16.8203ZM2.10742 23.5605H0.107422V24.8589L1.29332 25.3874L2.10742 23.5605ZM2.10742 20.168L1.29514 18.3403L0.107422 18.8682V20.168H2.10742ZM16.8203 13.6289H18.8203V10.5514L16.008 11.8013L16.8203 13.6289ZM16.8203 17.9004L17.5412 19.7659L18.8203 19.2717V17.9004H16.8203ZM5.73934 23.778L16.1104 27.7155L17.5302 23.9759L7.1591 20.0384L5.73934 23.778ZM14.8203 25.8457V30.1172H18.8203V25.8457H14.8203ZM17.6344 28.2904L2.92152 21.7337L1.29332 25.3874L16.0062 31.944L17.6344 28.2904ZM4.10742 23.5605V20.168H0.107422V23.5605H4.10742ZM2.9197 21.9956L17.6326 15.4565L16.008 11.8013L1.29514 18.3403L2.9197 21.9956ZM14.8203 13.6289V17.9004H18.8203V13.6289H14.8203ZM16.0994 16.0348L5.7283 20.0427L7.17014 23.7738L17.5412 19.7659L16.0994 16.0348ZM22.709 35.1973V37.1973H24.1114L24.5893 35.8787L22.709 35.1973ZM19.3516 35.1973L17.4712 34.5158L16.4994 37.1973H19.3516V35.1973ZM29.4238 7.40625V5.40625H28.0214L27.5435 6.72477L29.4238 7.40625ZM32.7812 7.40625L34.6616 8.08773L35.6334 5.40625H32.7812V7.40625ZM22.709 33.1973H19.3516V37.1973H22.709V33.1973ZM21.2319 35.8787L31.3041 8.08773L27.5435 6.72477L17.4712 34.5158L21.2319 35.8787ZM29.4238 9.40625H32.7812V5.40625H29.4238V9.40625ZM30.9009 6.72477L20.8287 34.5158L24.5893 35.8787L34.6616 8.08773L30.9009 6.72477ZM46.668 21.8203L47.3709 23.6927L52.413 21.7999L47.3575 19.943L46.668 21.8203ZM35.8047 17.8301H33.8047V19.2261L35.1151 19.7074L35.8047 17.8301ZM35.8047 13.6289L36.5956 11.7919L33.8047 10.5903V13.6289H35.8047ZM50.9922 20.168H52.9922V18.8516L51.7831 18.331L50.9922 20.168ZM50.9922 23.5605L51.7831 25.3975L52.9922 24.8769V23.5605H50.9922ZM35.8047 30.0996H33.8047V33.1382L36.5956 31.9366L35.8047 30.0996ZM35.8047 25.8984L35.1018 24.026L33.8047 24.513V25.8984H35.8047ZM47.3575 19.943L36.4943 15.9527L35.1151 19.7074L45.9784 23.6977L47.3575 19.943ZM37.8047 17.8301V13.6289H33.8047V17.8301H37.8047ZM35.0138 15.4659L50.2013 22.0049L51.7831 18.331L36.5956 11.7919L35.0138 15.4659ZM48.9922 20.168V23.5605H52.9922V20.168H48.9922ZM50.2013 21.7236L35.0138 28.2626L36.5956 31.9366L51.7831 25.3975L50.2013 21.7236ZM37.8047 30.0996V25.8984H33.8047V30.0996H37.8047ZM36.5076 27.7708L47.3709 23.6927L45.9651 19.9479L35.1018 24.026L36.5076 27.7708Z" fill="#30A851"/>
</svg>
