<svg width="814" height="677" viewBox="0 0 814 677" fill="none" xmlns="http://www.w3.org/2000/svg">
<path d="M696.95 54.5811C694.35 37.6888 694.35 20.498 696.95 3.60573C697.115 2.60036 697.632 1.68612 698.408 1.02584C699.184 0.365558 700.169 0.00207249 701.188 2.1441e-05H741.06C741.706 -0.00203158 742.344 0.143377 742.926 0.425192C743.507 0.707007 744.017 1.11778 744.415 1.62624C744.823 2.14165 745.107 2.74325 745.247 3.38521C745.387 4.02718 745.379 4.6926 745.223 5.33083C741.493 20.953 741.493 37.2338 745.222 52.856C745.379 53.4942 745.387 54.1596 745.247 54.8015C745.107 55.4435 744.823 56.0451 744.415 56.5605C744.017 57.069 743.507 57.4797 742.926 57.7616C742.344 58.0434 741.706 58.1888 741.06 58.1868H701.188C700.169 58.1847 699.184 57.8212 698.408 57.1609C697.632 56.5006 697.115 55.5864 696.95 54.5811V54.5811Z" fill="#6C63FF"/>
<path d="M728.79 24.6766H707.866C707.071 24.6757 706.308 24.3594 705.746 23.7969C705.184 23.2345 704.867 22.472 704.866 21.6766V20.5047C704.867 19.7093 705.184 18.9468 705.746 18.3843C706.308 17.8219 707.071 17.5056 707.866 17.5047H728.79C729.585 17.5056 730.348 17.8219 730.91 18.3843C731.473 18.9468 731.789 19.7093 731.79 20.5047V21.6766C731.789 22.472 731.473 23.2345 730.91 23.7969C730.348 24.3594 729.585 24.6757 728.79 24.6766Z" fill="white"/>
<path d="M728.79 37.0213H707.866C707.071 37.0204 706.308 36.7041 705.746 36.1417C705.184 35.5792 704.867 34.8167 704.866 34.0213V32.8489C704.867 32.0536 705.184 31.291 705.746 30.7286C706.308 30.1662 707.071 29.8498 707.866 29.8489H728.79C729.585 29.8498 730.348 30.1662 730.91 30.7286C731.473 31.291 731.789 32.0536 731.79 32.8489V34.0213C731.789 34.8167 731.473 35.5792 730.91 36.1417C730.348 36.7041 729.585 37.0204 728.79 37.0213Z" fill="white"/>
<path d="M720 36C548.501 889.5 218 347.5 262.5 429.5" stroke="#6C63FF" stroke-width="2"/>
<g clip-path="url(#clip0)">
<path d="M46.1473 674.836C33.6054 673.804 22.5325 664.73 16.2355 653.835C14.1237 650.181 12.6768 645.388 15.0682 641.911C15.7527 640.916 16.6987 640.129 17.8019 639.637C18.9051 639.145 20.1227 638.967 21.3205 639.123C22.5184 639.278 23.65 639.762 24.5907 640.52C25.5314 641.277 26.2447 642.28 26.6519 643.417C25.8816 639.149 25.5507 634.812 25.6641 630.476C25.7605 626.805 26.4542 622.654 29.5068 620.613C33.0483 618.244 38.1529 620.125 40.7288 623.518C43.3047 626.912 44.0037 631.326 44.6219 635.542C44.1172 633.757 44.068 631.875 44.4788 630.067C44.8896 628.259 45.7473 626.583 46.9734 625.192C48.1995 623.801 49.7549 622.739 51.4972 622.105C53.2395 621.471 55.113 621.283 56.9465 621.56C62.1335 622.343 66.1968 626.834 67.7824 631.835C69.3679 636.835 68.8729 642.257 67.8524 647.403C66.6558 653.437 64.7138 659.422 61.2175 664.483C57.7212 669.544 52.528 673.624 46.5027 674.862L46.1473 674.836Z" fill="#F2F2F2"/>
<path d="M813.55 267.517C813.551 290.023 806.556 311.972 793.534 330.328C780.512 348.683 762.106 362.538 740.864 369.974C740.189 370.209 739.503 370.445 738.817 370.66V260.392H596.752C596.793 259.706 596.844 259.02 596.905 258.344H738.817V236.805C738.816 235.447 738.277 234.146 737.317 233.186C736.357 232.226 735.056 231.687 733.698 231.686H602.577C602.812 231 603.058 230.314 603.324 229.638C612.207 205.796 629.185 185.832 651.291 173.235C673.397 160.638 699.227 156.208 724.268 160.72C749.308 165.232 771.967 178.398 788.287 197.919C804.606 217.439 813.548 242.073 813.55 267.517V267.517Z" fill="#492A8B" fill-opacity="0.78"/>
<path d="M733.698 229.638H235.134C233.234 229.641 231.413 230.396 230.069 231.74C228.726 233.083 227.97 234.905 227.968 236.805V574.641C227.97 576.541 228.726 578.362 230.069 579.706C231.413 581.049 233.234 581.805 235.134 581.807H733.698C735.598 581.805 737.42 581.049 738.763 579.706C740.107 578.362 740.863 576.541 740.865 574.641V236.805C740.863 234.905 740.107 233.083 738.763 231.74C737.42 230.396 735.598 229.641 733.698 229.638V229.638ZM738.817 574.641C738.817 575.998 738.277 577.3 737.317 578.26C736.357 579.22 735.056 579.759 733.698 579.76H235.134C233.777 579.759 232.475 579.22 231.515 578.26C230.555 577.3 230.016 575.998 230.015 574.641V236.805C230.016 235.447 230.555 234.146 231.515 233.186C232.475 232.226 233.777 231.686 235.134 231.686H733.698C735.056 231.686 736.357 232.226 737.317 233.186C738.277 234.146 738.817 235.447 738.817 236.805V574.641Z" fill="#3F3D56"/>
<path d="M739.841 258.344H228.991V260.392H739.841V258.344Z" fill="#3F3D56"/>
<path d="M246.395 251.137C249.788 251.137 252.538 248.387 252.538 244.995C252.538 241.602 249.788 238.852 246.395 238.852C243.003 238.852 240.253 241.602 240.253 244.995C240.253 248.387 243.003 251.137 246.395 251.137Z" fill="#B107A0"/>
<path d="M264.055 251.137C267.447 251.137 270.197 248.387 270.197 244.995C270.197 241.602 267.447 238.852 264.055 238.852C260.662 238.852 257.912 241.602 257.912 244.995C257.912 248.387 260.662 251.137 264.055 251.137Z" fill="#B107A0"/>
<path d="M281.714 251.137C285.107 251.137 287.857 248.387 287.857 244.995C287.857 241.602 285.107 238.852 281.714 238.852C278.322 238.852 275.572 241.602 275.572 244.995C275.572 248.387 278.322 251.137 281.714 251.137Z" fill="#B107A0"/>
<path d="M367.073 277.755H276.983C275.083 277.757 273.261 278.512 271.918 279.856C270.574 281.199 269.819 283.021 269.817 284.921V375.01C269.819 376.91 270.574 378.732 271.918 380.075C273.261 381.419 275.083 382.175 276.983 382.177H367.073C368.972 382.175 370.794 381.419 372.137 380.075C373.481 378.732 374.237 376.91 374.239 375.01V284.921C374.237 283.021 373.481 281.199 372.137 279.856C370.794 278.512 368.972 277.757 367.073 277.755V277.755ZM372.191 375.01C372.191 376.368 371.651 377.669 370.691 378.629C369.732 379.589 368.43 380.129 367.073 380.129H276.983C275.625 380.129 274.324 379.589 273.364 378.629C272.404 377.669 271.865 376.368 271.864 375.01V284.921C271.865 283.563 272.404 282.262 273.364 281.302C274.324 280.342 275.625 279.803 276.983 279.802H367.073C368.43 279.803 369.732 280.342 370.691 281.302C371.651 282.262 372.191 283.563 372.191 284.921V375.01Z" fill="#3F3D56"/>
<path d="M633.758 336.108H543.669C541.905 336.111 540.214 336.814 538.967 338.061C537.72 339.308 537.018 340.999 537.014 342.762V432.852C537.018 434.616 537.72 436.307 538.967 437.554C540.214 438.801 541.905 439.503 543.669 439.506H633.758C635.522 439.503 637.213 438.801 638.46 437.554C639.707 436.307 640.409 434.616 640.413 432.852V342.762C640.409 340.999 639.707 339.308 638.46 338.061C637.213 336.814 635.522 336.111 633.758 336.108V336.108Z" fill="#6C63FF"/>
<path d="M547.274 358.074L550.003 365.326L552.726 358.074H554.851V367.535H553.213V364.416L553.376 360.244L550.581 367.535H549.405L546.617 360.251L546.78 364.416V367.535H545.142V358.074H547.274ZM555.553 363.955C555.553 363.266 555.69 362.647 555.963 362.096C556.236 361.542 556.619 361.117 557.113 360.823C557.607 360.524 558.174 360.374 558.816 360.374C559.764 360.374 560.533 360.68 561.123 361.291C561.716 361.901 562.037 362.711 562.084 363.721L562.091 364.091C562.091 364.784 561.956 365.404 561.688 365.95C561.424 366.496 561.042 366.918 560.544 367.217C560.05 367.516 559.478 367.665 558.829 367.665C557.836 367.665 557.042 367.336 556.444 366.678C555.85 366.015 555.553 365.133 555.553 364.033V363.955ZM557.132 364.091C557.132 364.815 557.282 365.382 557.581 365.794C557.88 366.201 558.296 366.405 558.829 366.405C559.361 366.405 559.775 366.197 560.07 365.781C560.369 365.365 560.518 364.756 560.518 363.955C560.518 363.244 560.364 362.681 560.057 362.265C559.754 361.849 559.34 361.641 558.816 361.641C558.3 361.641 557.891 361.847 557.587 362.259C557.284 362.666 557.132 363.277 557.132 364.091ZM568.798 364.091C568.798 365.183 568.553 366.052 568.064 366.697C567.578 367.343 566.909 367.665 566.056 367.665C565.232 367.665 564.591 367.369 564.132 366.775L564.054 367.535H562.624V357.554H564.204V361.18C564.658 360.643 565.271 360.374 566.043 360.374C566.9 360.374 567.574 360.693 568.064 361.329C568.553 361.966 568.798 362.857 568.798 364V364.091ZM567.219 363.955C567.219 363.192 567.084 362.621 566.816 362.239C566.547 361.858 566.157 361.667 565.646 361.667C564.962 361.667 564.481 361.966 564.204 362.564V365.462C564.485 366.073 564.97 366.379 565.659 366.379C566.153 366.379 566.534 366.195 566.803 365.826C567.071 365.458 567.21 364.901 567.219 364.156V363.955ZM571.008 367.535H569.429V360.504H571.008V367.535ZM569.332 358.678C569.332 358.436 569.407 358.234 569.559 358.074C569.715 357.914 569.936 357.833 570.222 357.833C570.508 357.833 570.729 357.914 570.885 358.074C571.041 358.234 571.119 358.436 571.119 358.678C571.119 358.916 571.041 359.116 570.885 359.276C570.729 359.432 570.508 359.51 570.222 359.51C569.936 359.51 569.715 359.432 569.559 359.276C569.407 359.116 569.332 358.916 569.332 358.678ZM573.615 367.535H572.036V357.554H573.615V367.535ZM577.638 367.665C576.637 367.665 575.825 367.351 575.201 366.723C574.582 366.091 574.272 365.25 574.272 364.202V364.007C574.272 363.305 574.406 362.679 574.675 362.129C574.948 361.574 575.329 361.143 575.818 360.836C576.308 360.528 576.854 360.374 577.456 360.374C578.414 360.374 579.152 360.68 579.672 361.291C580.196 361.901 580.458 362.766 580.458 363.883V364.52H575.864C575.912 365.101 576.104 365.56 576.442 365.898C576.785 366.236 577.213 366.405 577.729 366.405C578.452 366.405 579.042 366.112 579.497 365.527L580.348 366.34C580.066 366.76 579.689 367.087 579.217 367.321C578.749 367.551 578.223 367.665 577.638 367.665ZM577.45 361.641C577.016 361.641 576.665 361.793 576.397 362.096C576.133 362.4 575.964 362.822 575.89 363.363H578.899V363.247C578.864 362.718 578.723 362.319 578.476 362.051C578.229 361.778 577.887 361.641 577.45 361.641ZM550.594 379.526H546.786V383.535H545.142V374.074H551.153V375.399H546.786V378.213H550.594V379.526ZM553.188 383.535H551.609V376.504H553.188V383.535ZM551.511 374.678C551.511 374.436 551.587 374.234 551.739 374.074C551.895 373.914 552.116 373.833 552.402 373.833C552.688 373.833 552.909 373.914 553.064 374.074C553.22 374.234 553.298 374.436 553.298 374.678C553.298 374.916 553.22 375.116 553.064 375.276C552.909 375.432 552.688 375.51 552.402 375.51C552.116 375.51 551.895 375.432 551.739 375.276C551.587 375.116 551.511 374.916 551.511 374.678ZM557.796 377.947C557.588 377.912 557.374 377.895 557.153 377.895C556.429 377.895 555.942 378.172 555.691 378.727V383.535H554.112V376.504H555.619L555.658 377.291C556.039 376.68 556.568 376.374 557.244 376.374C557.469 376.374 557.655 376.405 557.803 376.465L557.796 377.947ZM561.936 381.625C561.936 381.343 561.819 381.129 561.585 380.982C561.356 380.834 560.972 380.704 560.435 380.592C559.898 380.479 559.45 380.336 559.09 380.163C558.302 379.782 557.907 379.229 557.907 378.506C557.907 377.899 558.163 377.392 558.674 376.985C559.185 376.578 559.835 376.374 560.624 376.374C561.464 376.374 562.142 376.582 562.658 376.998C563.178 377.414 563.437 377.953 563.437 378.616H561.858C561.858 378.313 561.746 378.062 561.52 377.862C561.295 377.659 560.996 377.557 560.624 377.557C560.277 377.557 559.993 377.637 559.772 377.797C559.556 377.958 559.447 378.172 559.447 378.441C559.447 378.683 559.549 378.872 559.753 379.006C559.957 379.14 560.368 379.277 560.988 379.415C561.607 379.55 562.092 379.712 562.443 379.903C562.798 380.089 563.061 380.314 563.23 380.579C563.403 380.843 563.489 381.164 563.489 381.54C563.489 382.173 563.227 382.686 562.703 383.081C562.179 383.47 561.492 383.665 560.643 383.665C560.067 383.665 559.554 383.561 559.103 383.354C558.653 383.146 558.302 382.86 558.05 382.496C557.799 382.132 557.673 381.74 557.673 381.32H559.207C559.229 381.692 559.369 381.98 559.629 382.184C559.889 382.383 560.234 382.483 560.663 382.483C561.079 382.483 561.395 382.405 561.611 382.249C561.828 382.088 561.936 381.881 561.936 381.625ZM566.051 374.795V376.504H567.292V377.674H566.051V381.599C566.051 381.868 566.103 382.062 566.207 382.184C566.315 382.301 566.506 382.359 566.778 382.359C566.96 382.359 567.145 382.338 567.331 382.294V383.516C566.971 383.616 566.625 383.665 566.291 383.665C565.078 383.665 564.472 382.996 564.472 381.657V377.674H563.315V376.504H564.472V374.795H566.051Z" fill="black" fill-opacity="0.69"/>
<path d="M691.724 300.789H601.635C599.871 300.792 598.18 301.494 596.933 302.742C595.686 303.989 594.984 305.679 594.98 307.443V397.533C594.984 399.297 595.686 400.987 596.933 402.234C598.18 403.482 599.871 404.184 601.635 404.187H691.724C693.488 404.184 695.179 403.482 696.426 402.234C697.673 400.987 698.375 399.297 698.379 397.533V307.443C698.375 305.679 697.673 303.989 696.426 302.742C695.179 301.494 693.488 300.792 691.724 300.789V300.789Z" fill="#E6E6E6"/>
<path d="M615.834 326.577C615.739 327.586 615.366 328.375 614.717 328.942C614.067 329.505 613.202 329.787 612.124 329.787C611.37 329.787 610.705 329.609 610.129 329.254C609.557 328.894 609.115 328.385 608.803 327.727C608.491 327.068 608.329 326.304 608.316 325.433V324.549C608.316 323.657 608.474 322.87 608.79 322.19C609.106 321.51 609.559 320.986 610.148 320.618C610.742 320.249 611.426 320.065 612.202 320.065C613.246 320.065 614.086 320.349 614.723 320.917C615.36 321.484 615.73 322.286 615.834 323.321H614.197C614.119 322.641 613.919 322.151 613.599 321.852C613.283 321.549 612.817 321.397 612.202 321.397C611.487 321.397 610.937 321.66 610.551 322.184C610.17 322.704 609.975 323.468 609.966 324.478V325.316C609.966 326.338 610.148 327.118 610.512 327.655C610.88 328.193 611.418 328.461 612.124 328.461C612.769 328.461 613.254 328.316 613.579 328.026C613.904 327.736 614.11 327.253 614.197 326.577H615.834ZM618.038 329.657H616.459V319.675H618.038V329.657ZM620.645 329.657H619.066V322.626H620.645V329.657ZM618.968 320.8C618.968 320.557 619.044 320.356 619.196 320.195C619.351 320.035 619.572 319.955 619.858 319.955C620.144 319.955 620.365 320.035 620.521 320.195C620.677 320.356 620.755 320.557 620.755 320.8C620.755 321.038 620.677 321.237 620.521 321.397C620.365 321.553 620.144 321.631 619.858 321.631C619.572 321.631 619.351 321.553 619.196 321.397C619.044 321.237 618.968 321.038 618.968 320.8ZM624.668 329.787C623.667 329.787 622.855 329.473 622.231 328.845C621.612 328.212 621.302 327.372 621.302 326.323V326.128C621.302 325.426 621.436 324.8 621.705 324.25C621.978 323.696 622.359 323.265 622.848 322.957C623.338 322.649 623.884 322.496 624.486 322.496C625.443 322.496 626.182 322.801 626.702 323.412C627.226 324.023 627.488 324.887 627.488 326.005V326.642H622.894C622.942 327.222 623.134 327.681 623.472 328.019C623.815 328.357 624.243 328.526 624.759 328.526C625.482 328.526 626.072 328.234 626.526 327.649L627.378 328.461C627.096 328.881 626.719 329.209 626.247 329.442C625.779 329.672 625.253 329.787 624.668 329.787ZM624.48 323.763C624.046 323.763 623.695 323.915 623.427 324.218C623.162 324.521 622.994 324.943 622.92 325.485H625.929V325.368C625.894 324.839 625.753 324.441 625.506 324.172C625.259 323.899 624.917 323.763 624.48 323.763ZM629.387 322.626L629.432 323.438C629.952 322.81 630.634 322.496 631.479 322.496C632.943 322.496 633.688 323.334 633.714 325.011V329.657H632.135V325.102C632.135 324.655 632.038 324.326 631.843 324.114C631.652 323.897 631.338 323.789 630.901 323.789C630.264 323.789 629.789 324.077 629.478 324.653V329.657H627.898V322.626H629.387ZM636.51 320.917V322.626H637.751V323.795H636.51V327.72C636.51 327.989 636.562 328.184 636.666 328.305C636.774 328.422 636.964 328.481 637.237 328.481C637.419 328.481 637.603 328.459 637.79 328.416V329.637C637.43 329.737 637.084 329.787 636.75 329.787C635.537 329.787 634.93 329.118 634.93 327.779V323.795H633.774V322.626H634.93V320.917H636.51ZM612.403 343.746C612.403 343.465 612.286 343.25 612.052 343.103C611.823 342.956 611.439 342.826 610.902 342.713C610.365 342.601 609.916 342.458 609.557 342.284C608.768 341.903 608.374 341.351 608.374 340.627C608.374 340.021 608.63 339.514 609.141 339.107C609.652 338.699 610.302 338.496 611.09 338.496C611.931 338.496 612.609 338.704 613.124 339.12C613.644 339.535 613.904 340.075 613.904 340.738H612.325C612.325 340.434 612.213 340.183 611.987 339.984C611.762 339.78 611.463 339.678 611.09 339.678C610.744 339.678 610.46 339.759 610.239 339.919C610.023 340.079 609.914 340.294 609.914 340.562C609.914 340.805 610.016 340.993 610.22 341.128C610.423 341.262 610.835 341.398 611.454 341.537C612.074 341.671 612.559 341.834 612.91 342.024C613.265 342.211 613.527 342.436 613.696 342.7C613.87 342.964 613.956 343.285 613.956 343.662C613.956 344.294 613.694 344.808 613.17 345.202C612.646 345.592 611.959 345.787 611.11 345.787C610.534 345.787 610.02 345.683 609.57 345.475C609.119 345.267 608.768 344.981 608.517 344.617C608.266 344.253 608.14 343.861 608.14 343.441H609.674C609.695 343.814 609.836 344.102 610.096 344.305C610.356 344.505 610.701 344.604 611.129 344.604C611.545 344.604 611.862 344.526 612.078 344.37C612.295 344.21 612.403 344.002 612.403 343.746ZM618.74 345.657C618.671 345.523 618.61 345.304 618.558 345.001C618.055 345.525 617.44 345.787 616.712 345.787C616.006 345.787 615.43 345.585 614.984 345.183C614.538 344.78 614.314 344.281 614.314 343.688C614.314 342.938 614.592 342.364 615.146 341.966C615.705 341.563 616.502 341.361 617.538 341.361H618.506V340.9C618.506 340.536 618.404 340.246 618.2 340.029C617.997 339.808 617.687 339.698 617.271 339.698C616.912 339.698 616.617 339.789 616.387 339.971C616.158 340.148 616.043 340.376 616.043 340.653H614.464C614.464 340.268 614.592 339.908 614.847 339.574C615.103 339.237 615.45 338.972 615.887 338.782C616.329 338.591 616.821 338.496 617.362 338.496C618.185 338.496 618.842 338.704 619.331 339.12C619.821 339.531 620.072 340.112 620.085 340.861V344.032C620.085 344.665 620.174 345.17 620.351 345.546V345.657H618.74ZM617.005 344.52C617.317 344.52 617.609 344.444 617.882 344.292C618.159 344.141 618.367 343.937 618.506 343.681V342.356H617.655C617.07 342.356 616.63 342.458 616.335 342.661C616.041 342.865 615.894 343.153 615.894 343.525C615.894 343.829 615.993 344.071 616.192 344.253C616.396 344.431 616.667 344.52 617.005 344.52ZM622.919 336.917V338.626H624.16V339.795H622.919V343.72C622.919 343.989 622.971 344.184 623.075 344.305C623.183 344.422 623.374 344.481 623.647 344.481C623.829 344.481 624.013 344.459 624.199 344.416V345.637C623.84 345.737 623.493 345.787 623.16 345.787C621.947 345.787 621.34 345.118 621.34 343.779V339.795H620.183V338.626H621.34V336.917H622.919ZM626.254 345.657H624.674V338.626H626.254V345.657ZM624.577 336.8C624.577 336.557 624.653 336.356 624.804 336.195C624.96 336.035 625.181 335.955 625.467 335.955C625.753 335.955 625.974 336.035 626.13 336.195C626.286 336.356 626.364 336.557 626.364 336.8C626.364 337.038 626.286 337.237 626.13 337.397C625.974 337.553 625.753 337.631 625.467 337.631C625.181 337.631 624.96 337.553 624.804 337.397C624.653 337.237 624.577 337.038 624.577 336.8ZM631.122 343.746C631.122 343.465 631.005 343.25 630.771 343.103C630.541 342.956 630.158 342.826 629.621 342.713C629.083 342.601 628.635 342.458 628.275 342.284C627.487 341.903 627.093 341.351 627.093 340.627C627.093 340.021 627.348 339.514 627.859 339.107C628.371 338.699 629.02 338.496 629.809 338.496C630.649 338.496 631.327 338.704 631.843 339.12C632.363 339.535 632.623 340.075 632.623 340.738H631.044C631.044 340.434 630.931 340.183 630.706 339.984C630.48 339.78 630.182 339.678 629.809 339.678C629.462 339.678 629.179 339.759 628.958 339.919C628.741 340.079 628.633 340.294 628.633 340.562C628.633 340.805 628.735 340.993 628.938 341.128C629.142 341.262 629.553 341.398 630.173 341.537C630.792 341.671 631.278 341.834 631.629 342.024C631.984 342.211 632.246 342.436 632.415 342.7C632.588 342.964 632.675 343.285 632.675 343.662C632.675 344.294 632.413 344.808 631.888 345.202C631.364 345.592 630.678 345.787 629.828 345.787C629.252 345.787 628.739 345.683 628.288 345.475C627.838 345.267 627.487 344.981 627.236 344.617C626.984 344.253 626.859 343.861 626.859 343.441H628.392C628.414 343.814 628.555 344.102 628.815 344.305C629.075 344.505 629.419 344.604 629.848 344.604C630.264 344.604 630.58 344.526 630.797 344.37C631.013 344.21 631.122 344.002 631.122 343.746ZM633.813 345.657V339.795H632.741V338.626H633.813V337.982C633.813 337.203 634.029 336.6 634.463 336.176C634.896 335.751 635.502 335.539 636.282 335.539C636.559 335.539 636.854 335.578 637.166 335.656L637.127 336.891C636.954 336.856 636.752 336.839 636.523 336.839C635.769 336.839 635.392 337.226 635.392 338.002V338.626H636.822V339.795H635.392V345.657H633.813ZM641.378 345.657C641.308 345.523 641.248 345.304 641.196 345.001C640.693 345.525 640.078 345.787 639.35 345.787C638.644 345.787 638.068 345.585 637.622 345.183C637.175 344.78 636.952 344.281 636.952 343.688C636.952 342.938 637.23 342.364 637.784 341.966C638.343 341.563 639.14 341.361 640.175 341.361H641.144V340.9C641.144 340.536 641.042 340.246 640.838 340.029C640.635 339.808 640.325 339.698 639.909 339.698C639.549 339.698 639.255 339.789 639.025 339.971C638.796 340.148 638.681 340.376 638.681 340.653H637.102C637.102 340.268 637.23 339.908 637.485 339.574C637.741 339.237 638.087 338.972 638.525 338.782C638.967 338.591 639.458 338.496 640 338.496C640.823 338.496 641.479 338.704 641.969 339.12C642.459 339.531 642.71 340.112 642.723 340.861V344.032C642.723 344.665 642.812 345.17 642.989 345.546V345.657H641.378ZM639.643 344.52C639.955 344.52 640.247 344.444 640.52 344.292C640.797 344.141 641.005 343.937 641.144 343.681V342.356H640.292C639.708 342.356 639.268 342.458 638.973 342.661C638.679 342.865 638.531 343.153 638.531 343.525C638.531 343.829 638.631 344.071 638.83 344.253C639.034 344.431 639.305 344.52 639.643 344.52ZM646.467 344.526C646.861 344.526 647.188 344.411 647.448 344.182C647.708 343.952 647.846 343.668 647.864 343.33H649.352C649.335 343.768 649.198 344.177 648.943 344.559C648.687 344.936 648.34 345.235 647.903 345.455C647.465 345.676 646.993 345.787 646.486 345.787C645.503 345.787 644.723 345.468 644.147 344.832C643.571 344.195 643.282 343.315 643.282 342.193V342.031C643.282 340.961 643.568 340.105 644.14 339.464C644.712 338.818 645.492 338.496 646.48 338.496C647.316 338.496 647.996 338.74 648.52 339.23C649.049 339.715 649.326 340.354 649.352 341.147H647.864C647.846 340.744 647.708 340.413 647.448 340.153C647.192 339.893 646.865 339.763 646.467 339.763C645.955 339.763 645.561 339.949 645.284 340.322C645.007 340.69 644.866 341.251 644.862 342.005V342.258C644.862 343.021 644.998 343.59 645.271 343.967C645.548 344.34 645.947 344.526 646.467 344.526ZM651.725 336.917V338.626H652.966V339.795H651.725V343.72C651.725 343.989 651.777 344.184 651.881 344.305C651.989 344.422 652.18 344.481 652.452 344.481C652.634 344.481 652.819 344.459 653.005 344.416V345.637C652.645 345.737 652.299 345.787 651.965 345.787C650.752 345.787 650.146 345.118 650.146 343.779V339.795H648.989V338.626H650.146V336.917H651.725ZM655.059 345.657H653.48V338.626H655.059V345.657ZM653.383 336.8C653.383 336.557 653.458 336.356 653.61 336.195C653.766 336.035 653.987 335.955 654.273 335.955C654.559 335.955 654.78 336.035 654.936 336.195C655.092 336.356 655.17 336.557 655.17 336.8C655.17 337.038 655.092 337.237 654.936 337.397C654.78 337.553 654.559 337.631 654.273 337.631C653.987 337.631 653.766 337.553 653.61 337.397C653.458 337.237 653.383 337.038 653.383 336.8ZM655.69 342.076C655.69 341.387 655.827 340.768 656.1 340.218C656.373 339.663 656.756 339.239 657.25 338.944C657.744 338.645 658.311 338.496 658.952 338.496C659.901 338.496 660.67 338.801 661.259 339.412C661.853 340.023 662.173 340.833 662.221 341.842L662.228 342.213C662.228 342.906 662.093 343.525 661.825 344.071C661.56 344.617 661.179 345.04 660.681 345.339C660.187 345.637 659.615 345.787 658.965 345.787C657.973 345.787 657.178 345.458 656.581 344.799C655.987 344.136 655.69 343.255 655.69 342.154V342.076ZM657.269 342.213C657.269 342.936 657.419 343.504 657.718 343.915C658.017 344.323 658.433 344.526 658.965 344.526C659.498 344.526 659.912 344.318 660.207 343.902C660.506 343.486 660.655 342.878 660.655 342.076C660.655 341.366 660.501 340.803 660.194 340.387C659.89 339.971 659.477 339.763 658.952 339.763C658.437 339.763 658.027 339.969 657.724 340.38C657.421 340.787 657.269 341.398 657.269 342.213ZM664.23 338.626L664.275 339.438C664.795 338.81 665.478 338.496 666.322 338.496C667.787 338.496 668.532 339.334 668.558 341.011V345.657H666.979V341.102C666.979 340.655 666.881 340.326 666.686 340.114C666.496 339.897 666.182 339.789 665.744 339.789C665.107 339.789 664.633 340.077 664.321 340.653V345.657H662.742V338.626H664.23Z" fill="black"/>
<path d="M556.977 404.699H466.888C465.124 404.703 463.433 405.405 462.186 406.652C460.939 407.899 460.237 409.59 460.233 411.353V501.443C460.237 503.207 460.939 504.897 462.186 506.145C463.433 507.392 465.124 508.094 466.888 508.097H556.977C558.741 508.094 560.432 507.392 561.679 506.145C562.926 504.897 563.628 503.207 563.632 501.443V411.353C563.628 409.59 562.926 407.899 561.679 406.652C560.432 405.405 558.741 404.703 556.977 404.699V404.699Z" fill="#E971DD"/>
<path d="M502.923 427.689V434.012C502.923 435.017 502.601 435.814 501.955 436.403C501.314 436.988 500.458 437.28 499.388 437.28C498.305 437.28 497.445 436.992 496.808 436.416C496.171 435.835 495.853 435.032 495.853 434.005V427.689H497.491V434.018C497.491 434.651 497.651 435.134 497.972 435.467C498.292 435.801 498.764 435.968 499.388 435.968C500.653 435.968 501.286 435.3 501.286 433.966V427.689H502.923ZM507.674 435.24C507.674 434.958 507.557 434.744 507.324 434.596C507.094 434.449 506.71 434.319 506.173 434.207C505.636 434.094 505.188 433.951 504.828 433.778C504.04 433.396 503.645 432.844 503.645 432.121C503.645 431.514 503.901 431.007 504.412 430.6C504.923 430.193 505.573 429.989 506.362 429.989C507.202 429.989 507.88 430.197 508.396 430.613C508.916 431.029 509.176 431.568 509.176 432.231H507.596C507.596 431.928 507.484 431.676 507.259 431.477C507.033 431.274 506.734 431.172 506.362 431.172C506.015 431.172 505.731 431.252 505.51 431.412C505.294 431.573 505.186 431.787 505.186 432.056C505.186 432.298 505.287 432.487 505.491 432.621C505.695 432.755 506.106 432.892 506.726 433.03C507.345 433.165 507.83 433.327 508.181 433.518C508.537 433.704 508.799 433.929 508.968 434.194C509.141 434.458 509.228 434.778 509.228 435.155C509.228 435.788 508.965 436.301 508.441 436.695C507.917 437.085 507.23 437.28 506.381 437.28C505.805 437.28 505.292 437.176 504.841 436.968C504.391 436.76 504.04 436.474 503.788 436.111C503.537 435.747 503.411 435.355 503.411 434.934H504.945C504.967 435.307 505.108 435.595 505.367 435.799C505.627 435.998 505.972 436.098 506.401 436.098C506.817 436.098 507.133 436.02 507.35 435.864C507.566 435.703 507.674 435.495 507.674 435.24ZM512.906 437.28C511.906 437.28 511.093 436.966 510.47 436.338C509.85 435.705 509.54 434.865 509.54 433.817V433.622C509.54 432.92 509.675 432.294 509.943 431.744C510.216 431.189 510.597 430.758 511.087 430.45C511.576 430.143 512.122 429.989 512.724 429.989C513.682 429.989 514.421 430.294 514.94 430.905C515.465 431.516 515.727 432.38 515.727 433.498V434.135H511.132C511.18 434.716 511.373 435.175 511.711 435.513C512.053 435.851 512.482 436.02 512.997 436.02C513.721 436.02 514.31 435.727 514.765 435.142L515.616 435.955C515.335 436.375 514.958 436.702 514.486 436.936C514.018 437.165 513.491 437.28 512.906 437.28ZM512.718 431.256C512.285 431.256 511.934 431.408 511.665 431.711C511.401 432.014 511.232 432.437 511.158 432.978H514.167V432.861C514.132 432.333 513.992 431.934 513.745 431.666C513.498 431.393 513.156 431.256 512.718 431.256ZM519.841 431.562C519.633 431.527 519.419 431.51 519.198 431.51C518.474 431.51 517.987 431.787 517.735 432.341V437.15H516.156V430.119H517.664L517.703 430.905C518.084 430.294 518.613 429.989 519.289 429.989C519.514 429.989 519.7 430.019 519.847 430.08L519.841 431.562ZM501.455 449.141H497.647V453.15H496.003V443.689H502.014V445.014H497.647V447.828H501.455V449.141ZM505.881 447.562C505.673 447.527 505.458 447.51 505.238 447.51C504.514 447.51 504.027 447.787 503.775 448.341V453.15H502.196V446.119H503.704L503.743 446.905C504.124 446.294 504.653 445.989 505.329 445.989C505.554 445.989 505.74 446.019 505.887 446.08L505.881 447.562ZM509.046 453.28C508.046 453.28 507.233 452.966 506.609 452.338C505.99 451.705 505.68 450.865 505.68 449.817V449.622C505.68 448.92 505.814 448.294 506.083 447.744C506.356 447.189 506.737 446.758 507.227 446.45C507.716 446.143 508.262 445.989 508.864 445.989C509.822 445.989 510.56 446.294 511.08 446.905C511.605 447.516 511.867 448.38 511.867 449.498V450.135H507.272C507.32 450.716 507.513 451.175 507.851 451.513C508.193 451.851 508.622 452.02 509.137 452.02C509.861 452.02 510.45 451.727 510.905 451.142L511.756 451.955C511.475 452.375 511.098 452.702 510.625 452.936C510.158 453.165 509.631 453.28 509.046 453.28ZM508.858 447.256C508.425 447.256 508.074 447.408 507.805 447.711C507.541 448.014 507.372 448.437 507.298 448.978H510.307V448.861C510.272 448.333 510.132 447.934 509.885 447.666C509.638 447.393 509.295 447.256 508.858 447.256ZM513.979 453.15H512.4V446.119H513.979V453.15ZM512.303 444.293C512.303 444.05 512.379 443.849 512.53 443.689C512.686 443.528 512.907 443.448 513.193 443.448C513.479 443.448 513.7 443.528 513.856 443.689C514.012 443.849 514.09 444.05 514.09 444.293C514.09 444.531 514.012 444.731 513.856 444.891C513.7 445.047 513.479 445.125 513.193 445.125C512.907 445.125 512.686 445.047 512.53 444.891C512.379 444.731 512.303 444.531 512.303 444.293ZM516.372 446.119L516.417 446.931C516.937 446.303 517.619 445.989 518.464 445.989C519.928 445.989 520.674 446.827 520.7 448.504V453.15H519.12V448.595C519.12 448.149 519.023 447.819 518.828 447.607C518.637 447.391 518.323 447.282 517.886 447.282C517.249 447.282 516.775 447.57 516.463 448.147V453.15H514.883V446.119H516.372ZM521.22 449.583C521.22 448.5 521.471 447.631 521.974 446.977C522.477 446.318 523.15 445.989 523.995 445.989C524.74 445.989 525.342 446.249 525.802 446.769V443.169H527.381V453.15H525.951L525.873 452.422C525.401 452.994 524.77 453.28 523.982 453.28C523.159 453.28 522.492 452.949 521.98 452.286C521.474 451.623 521.22 450.722 521.22 449.583ZM522.799 449.719C522.799 450.434 522.936 450.993 523.209 451.396C523.486 451.794 523.878 451.994 524.385 451.994C525.03 451.994 525.503 451.705 525.802 451.129V448.127C525.511 447.564 525.043 447.282 524.398 447.282C523.887 447.282 523.492 447.486 523.215 447.893C522.938 448.296 522.799 448.905 522.799 449.719ZM529.909 453.15H528.33V443.169H529.909V453.15ZM533.296 450.889L534.725 446.119H536.408L533.614 454.216C533.185 455.399 532.457 455.99 531.431 455.99C531.201 455.99 530.948 455.951 530.67 455.873V454.651L530.969 454.671C531.368 454.671 531.667 454.597 531.866 454.45C532.07 454.307 532.23 454.064 532.347 453.722L532.574 453.118L530.105 446.119H531.808L533.296 450.889Z" fill="black"/>
<path d="M466.888 447.696H376.798C375.034 447.7 373.344 448.402 372.096 449.649C370.849 450.896 370.147 452.587 370.144 454.351V544.44C370.147 546.204 370.849 547.895 372.096 549.142C373.344 550.389 375.034 551.091 376.798 551.095H466.888C468.651 551.091 470.342 550.389 471.589 549.142C472.836 547.895 473.539 546.204 473.542 544.44V454.351C473.539 452.587 472.836 450.896 471.589 449.649C470.342 448.402 468.651 447.7 466.888 447.696V447.696Z" fill="#E6E6E6"/>
<path d="M390.968 489.232H387.082V492.144H391.624V493.456H385.438V483.995H391.579V485.32H387.082V487.933H390.968V489.232ZM393.692 493.456H392.113V483.475H393.692V493.456ZM397.715 493.586C396.714 493.586 395.902 493.272 395.278 492.644C394.659 492.011 394.349 491.171 394.349 490.123V489.928C394.349 489.226 394.483 488.6 394.752 488.05C395.025 487.495 395.406 487.064 395.895 486.756C396.385 486.449 396.931 486.295 397.533 486.295C398.49 486.295 399.229 486.6 399.749 487.211C400.273 487.822 400.535 488.686 400.535 489.804V490.441H395.941C395.989 491.022 396.181 491.481 396.519 491.819C396.862 492.157 397.29 492.326 397.806 492.326C398.529 492.326 399.119 492.033 399.574 491.448L400.425 492.261C400.143 492.681 399.766 493.008 399.294 493.242C398.826 493.471 398.3 493.586 397.715 493.586ZM397.527 487.562C397.093 487.562 396.742 487.714 396.474 488.017C396.21 488.32 396.041 488.743 395.967 489.284H398.976V489.167C398.941 488.639 398.8 488.24 398.553 487.972C398.306 487.699 397.964 487.562 397.527 487.562ZM400.692 489.889C400.692 488.797 400.948 487.926 401.459 487.276C401.974 486.622 402.657 486.295 403.506 486.295C404.307 486.295 404.938 486.574 405.397 487.133L405.468 486.425H406.891V493.242C406.891 494.165 406.603 494.892 406.027 495.425C405.455 495.958 404.682 496.225 403.707 496.225C403.192 496.225 402.687 496.116 402.193 495.9C401.704 495.687 401.331 495.408 401.075 495.061L401.823 494.113C402.308 494.689 402.906 494.977 403.616 494.977C404.14 494.977 404.554 494.834 404.857 494.548C405.161 494.266 405.312 493.851 405.312 493.3V492.826C404.857 493.333 404.251 493.586 403.493 493.586C402.67 493.586 401.996 493.259 401.472 492.605C400.952 491.951 400.692 491.045 400.692 489.889ZM402.265 490.025C402.265 490.731 402.408 491.288 402.694 491.695C402.984 492.098 403.385 492.3 403.896 492.3C404.533 492.3 405.005 492.027 405.312 491.481V488.388C405.013 487.855 404.546 487.588 403.909 487.588C403.389 487.588 402.984 487.794 402.694 488.206C402.408 488.617 402.265 489.224 402.265 490.025ZM411.922 493.456C411.853 493.322 411.792 493.103 411.74 492.8C411.238 493.324 410.622 493.586 409.895 493.586C409.188 493.586 408.612 493.385 408.166 492.982C407.72 492.579 407.497 492.081 407.497 491.487C407.497 490.738 407.774 490.164 408.328 489.765C408.887 489.362 409.684 489.161 410.72 489.161H411.688V488.699C411.688 488.336 411.586 488.045 411.383 487.829C411.179 487.608 410.869 487.497 410.453 487.497C410.094 487.497 409.799 487.588 409.57 487.77C409.34 487.948 409.225 488.175 409.225 488.453H407.646C407.646 488.067 407.774 487.707 408.029 487.374C408.285 487.036 408.632 486.772 409.069 486.581C409.511 486.39 410.003 486.295 410.544 486.295C411.367 486.295 412.024 486.503 412.513 486.919C413.003 487.33 413.254 487.911 413.267 488.66V491.832C413.267 492.464 413.356 492.969 413.534 493.346V493.456H411.922ZM410.187 492.319C410.499 492.319 410.791 492.243 411.064 492.092C411.341 491.94 411.549 491.736 411.688 491.481V490.155H410.837C410.252 490.155 409.812 490.257 409.518 490.461C409.223 490.664 409.076 490.952 409.076 491.325C409.076 491.628 409.175 491.871 409.375 492.053C409.578 492.23 409.849 492.319 410.187 492.319ZM415.588 486.425L415.633 487.237C416.153 486.609 416.836 486.295 417.68 486.295C419.145 486.295 419.89 487.133 419.916 488.81V493.456H418.337V488.901C418.337 488.455 418.239 488.125 418.044 487.913C417.854 487.697 417.54 487.588 417.102 487.588C416.465 487.588 415.991 487.876 415.679 488.453V493.456H414.1V486.425H415.588ZM422.711 484.716V486.425H423.952V487.595H422.711V491.52C422.711 491.788 422.763 491.983 422.867 492.105C422.975 492.222 423.166 492.28 423.439 492.28C423.621 492.28 423.805 492.258 423.991 492.215V493.437C423.632 493.536 423.285 493.586 422.951 493.586C421.738 493.586 421.132 492.917 421.132 491.578V487.595H419.975V486.425H421.132V484.716H422.711ZM385.438 509.456V499.995H388.232C389.068 499.995 389.809 500.181 390.455 500.553C391.105 500.926 391.607 501.455 391.962 502.139C392.318 502.824 392.495 503.608 392.495 504.491V504.966C392.495 505.863 392.315 506.651 391.956 507.331C391.601 508.011 391.092 508.536 390.429 508.904C389.77 509.272 389.014 509.456 388.161 509.456H385.438ZM387.082 501.32V508.144H388.154C389.016 508.144 389.677 507.875 390.136 507.338C390.6 506.796 390.836 506.021 390.845 505.011V504.485C390.845 503.458 390.622 502.674 390.175 502.133C389.729 501.591 389.081 501.32 388.232 501.32H387.082ZM396.278 509.586C395.277 509.586 394.465 509.272 393.841 508.644C393.222 508.011 392.912 507.171 392.912 506.123V505.928C392.912 505.226 393.046 504.6 393.315 504.05C393.588 503.495 393.969 503.064 394.459 502.756C394.948 502.449 395.494 502.295 396.096 502.295C397.054 502.295 397.792 502.6 398.312 503.211C398.836 503.822 399.098 504.686 399.098 505.804V506.441H394.504C394.552 507.022 394.744 507.481 395.082 507.819C395.425 508.157 395.853 508.326 396.369 508.326C397.093 508.326 397.682 508.033 398.137 507.448L398.988 508.261C398.706 508.681 398.329 509.008 397.857 509.242C397.389 509.471 396.863 509.586 396.278 509.586ZM396.09 503.562C395.656 503.562 395.305 503.714 395.037 504.017C394.773 504.32 394.604 504.743 394.53 505.284H397.539V505.167C397.504 504.639 397.363 504.24 397.116 503.972C396.869 503.699 396.527 503.562 396.09 503.562ZM403.473 507.546C403.473 507.264 403.356 507.05 403.122 506.902C402.892 506.755 402.509 506.625 401.971 506.512C401.434 506.4 400.986 506.257 400.626 506.084C399.838 505.702 399.444 505.15 399.444 504.427C399.444 503.82 399.699 503.313 400.21 502.906C400.722 502.499 401.371 502.295 402.16 502.295C403 502.295 403.678 502.503 404.194 502.919C404.714 503.335 404.974 503.874 404.974 504.537H403.395C403.395 504.234 403.282 503.982 403.057 503.783C402.831 503.58 402.532 503.478 402.16 503.478C401.813 503.478 401.53 503.558 401.309 503.718C401.092 503.878 400.984 504.093 400.984 504.362C400.984 504.604 401.085 504.793 401.289 504.927C401.493 505.061 401.904 505.198 402.524 505.336C403.143 505.471 403.629 505.633 403.979 505.824C404.335 506.01 404.597 506.235 404.766 506.5C404.939 506.764 405.026 507.084 405.026 507.461C405.026 508.094 404.764 508.607 404.239 509.001C403.715 509.391 403.028 509.586 402.179 509.586C401.603 509.586 401.09 509.482 400.639 509.274C400.189 509.066 399.838 508.78 399.587 508.417C399.335 508.053 399.21 507.661 399.21 507.24H400.743C400.765 507.613 400.906 507.901 401.166 508.105C401.426 508.304 401.77 508.404 402.199 508.404C402.615 508.404 402.931 508.326 403.148 508.17C403.364 508.009 403.473 507.801 403.473 507.546ZM407.288 509.456H405.709V502.425H407.288V509.456ZM405.611 500.599C405.611 500.356 405.687 500.155 405.839 499.995C405.995 499.834 406.216 499.754 406.502 499.754C406.788 499.754 407.008 499.834 407.164 499.995C407.32 500.155 407.398 500.356 407.398 500.599C407.398 500.837 407.32 501.037 407.164 501.197C407.008 501.353 406.788 501.431 406.502 501.431C406.216 501.431 405.995 501.353 405.839 501.197C405.687 501.037 405.611 500.837 405.611 500.599ZM407.939 505.889C407.939 504.797 408.194 503.926 408.705 503.276C409.221 502.622 409.903 502.295 410.752 502.295C411.554 502.295 412.184 502.574 412.643 503.133L412.715 502.425H414.138V509.242C414.138 510.165 413.85 510.892 413.274 511.425C412.702 511.958 411.929 512.225 410.954 512.225C410.438 512.225 409.934 512.116 409.44 511.9C408.95 511.687 408.578 511.408 408.322 511.061L409.069 510.113C409.554 510.689 410.152 510.977 410.863 510.977C411.387 510.977 411.801 510.834 412.104 510.548C412.407 510.266 412.559 509.851 412.559 509.3V508.826C412.104 509.333 411.497 509.586 410.739 509.586C409.916 509.586 409.243 509.259 408.718 508.605C408.198 507.951 407.939 507.045 407.939 505.889ZM409.511 506.025C409.511 506.731 409.654 507.288 409.94 507.695C410.23 508.098 410.631 508.3 411.142 508.3C411.779 508.3 412.251 508.027 412.559 507.481V504.388C412.26 503.855 411.792 503.588 411.155 503.588C410.635 503.588 410.23 503.794 409.94 504.206C409.654 504.617 409.511 505.224 409.511 506.025ZM416.433 502.425L416.478 503.237C416.998 502.609 417.68 502.295 418.525 502.295C419.989 502.295 420.735 503.133 420.761 504.81V509.456H419.181V504.901C419.181 504.455 419.084 504.125 418.889 503.913C418.698 503.697 418.384 503.588 417.947 503.588C417.31 503.588 416.836 503.876 416.524 504.453V509.456H414.945V502.425H416.433Z" fill="black"/>
<path d="M343.015 413.913H252.925C251.161 413.911 249.469 413.209 248.222 411.962C246.974 410.714 246.273 409.023 246.271 407.258V317.169C246.273 315.405 246.974 313.713 248.222 312.466C249.469 311.218 251.161 310.516 252.925 310.514H343.015C344.779 310.516 346.47 311.218 347.718 312.466C348.965 313.713 349.667 315.405 349.669 317.169V407.258C349.667 409.023 348.965 410.714 347.718 411.962C346.47 413.209 344.779 413.911 343.015 413.913Z" fill="#6C63FF"/>
<path d="M208.132 662.773L220.13 659.091L211.637 611.059L193.928 616.493L208.132 662.773Z" fill="#A0616A"/>
<path d="M246.69 663.131L208.98 674.704L204.509 660.134L227.649 653.033C229.562 652.446 231.572 652.241 233.565 652.431C235.557 652.62 237.493 653.201 239.261 654.138C241.029 655.076 242.595 656.353 243.87 657.896C245.144 659.439 246.103 661.218 246.69 663.131V663.131V663.131Z" fill="#2F2E41"/>
<path d="M105.759 663.05L118.31 663.049L124.281 614.638L105.757 614.639L105.759 663.05Z" fill="#A0616A"/>
<path d="M142.516 674.702L103.07 674.704L103.069 659.464L127.275 659.462C129.276 659.462 131.258 659.857 133.107 660.622C134.956 661.388 136.636 662.511 138.051 663.926C139.467 665.341 140.589 667.021 141.355 668.87C142.121 670.719 142.516 672.701 142.516 674.702L142.516 674.702Z" fill="#2F2E41"/>
<path d="M104.859 522.717C103.827 521.813 103.007 520.694 102.455 519.439C101.903 518.183 101.633 516.822 101.664 515.451C101.695 514.081 102.027 512.733 102.635 511.504C103.243 510.275 104.113 509.194 105.184 508.338L114.915 385.801L134.705 390.745L118.86 510.277C120.179 512.171 120.758 514.484 120.486 516.776C120.214 519.069 119.111 521.182 117.385 522.716C115.659 524.249 113.431 525.096 111.122 525.097C108.813 525.097 106.585 524.25 104.859 522.717V522.717Z" fill="#A0616A"/>
<path d="M122.625 382.032C116.951 374.243 116.777 363.515 122.888 356.065C126.877 351.203 133.548 347.313 144.686 347.313C174.375 347.313 185.636 370.859 185.636 370.859C185.636 370.859 197.921 393.381 190.755 413.856C183.589 434.331 183.589 436.379 183.589 436.379L136.496 432.284C136.496 432.284 144.441 411.981 122.625 382.032Z" fill="#CCCCCC"/>
<path d="M108.103 402.413L118.248 369.223C118.927 367 120.087 364.954 121.644 363.229C123.201 361.504 125.118 360.142 127.26 359.239C129.401 358.336 131.715 357.915 134.037 358.004C136.359 358.094 138.633 358.693 140.699 359.758V359.758C144.282 361.614 147.026 364.763 148.373 368.567C149.721 372.371 149.571 376.545 147.955 380.243L135.058 409.616L108.103 402.413Z" fill="#CCCCCC"/>
<path d="M182.565 431.26L222.491 638.057L200.992 644.199L148.781 508.041L125.235 647.271L102.713 650.342C102.713 650.342 92.8332 466.124 136.496 432.284L182.565 431.26Z" fill="#2F2E41"/>
<path d="M240.029 421.568C239.665 422.002 239.335 422.463 239.043 422.949L188.332 425.408L178.567 395.597L161.612 403.655L177.57 448.056L240.287 435.791C241.761 437.4 243.689 438.522 245.816 439.008C247.943 439.494 250.168 439.322 252.194 438.513C254.221 437.704 255.953 436.297 257.16 434.479C258.368 432.662 258.993 430.52 258.954 428.339C258.914 426.157 258.211 424.039 256.939 422.267C255.666 420.494 253.884 419.151 251.83 418.416C249.776 417.681 247.546 417.589 245.438 418.152C243.33 418.715 241.443 419.906 240.029 421.568V421.568Z" fill="#A0616A"/>
<path d="M154.517 373.832C154.246 371.524 154.484 369.185 155.216 366.979C155.948 364.773 157.156 362.755 158.754 361.068C160.352 359.38 162.301 358.064 164.463 357.212C166.625 356.361 168.949 355.995 171.268 356.14V356.14C175.295 356.398 179.074 358.179 181.837 361.12C184.6 364.061 186.141 367.943 186.148 371.979V404.058L158.572 408.301L154.517 373.832Z" fill="#CCCCCC"/>
<path d="M150.019 338.503C146.245 338.486 143.333 334.513 143.503 330.743C143.672 326.973 146.204 323.656 149.255 321.434C152.305 319.212 155.883 317.859 159.285 316.226C162.687 314.592 166.06 312.555 168.16 309.42C169.429 307.367 170.187 305.041 170.369 302.635C170.551 300.229 170.153 297.814 169.208 295.595C167.253 291.155 163.897 287.478 159.653 285.128C153.349 281.438 145.887 280.258 138.752 281.823C131.617 283.388 125.333 287.584 121.153 293.574L116.845 305.304C112.455 310.582 111.759 318.421 114.457 324.734C117.156 331.047 122.901 335.797 129.385 338.055C135.963 340.168 143.004 340.38 149.697 338.664" fill="#2F2E41"/>
<path d="M127.039 299.436C125.187 296.468 121.977 294.58 118.658 293.473C114.814 292.189 110.725 291.81 106.711 292.366C102.696 292.921 98.8635 294.395 95.5118 296.674C92.1601 298.953 89.3797 301.975 87.3869 305.504C85.3941 309.033 84.2428 312.975 84.0227 317.022C83.6709 323.486 85.6951 329.807 86.8845 336.171C88.0739 342.535 88.3105 349.563 84.8017 355.004C82.1292 359.148 77.6725 361.757 73.2735 363.985C69.6071 365.841 65.6414 367.584 61.5484 367.214C57.4554 366.844 53.3416 363.602 53.4502 359.494C52.08 362.439 51.1548 365.572 50.7049 368.79C50.4169 372.021 51.2133 375.507 53.5469 377.76C56.9386 381.034 62.3127 380.795 66.974 380.088C77.065 378.558 87.2833 375.691 95.2555 369.318C103.228 362.945 108.518 352.452 106.418 342.464C105.541 338.292 103.48 334.483 101.815 330.558C100.149 326.633 98.8491 322.34 99.6142 318.146C100.067 315.985 100.989 313.95 102.314 312.184C103.639 310.419 105.336 308.966 107.285 307.927C111.225 305.878 115.734 305.195 120.105 305.983C122.97 306.453 126.548 307.184 128.248 304.829C128.698 304.083 128.928 303.225 128.911 302.354C128.894 301.483 128.631 300.634 128.152 299.906C127.171 298.467 125.923 297.229 124.474 296.262" fill="#2F2E41"/>
<path d="M316.381 676.345H1.79026C1.62989 676.346 1.47099 676.314 1.32269 676.253C1.17439 676.192 1.0396 676.103 0.926035 675.989C0.812469 675.876 0.722362 675.742 0.660882 675.593C0.599402 675.445 0.567749 675.286 0.567749 675.126C0.567749 674.966 0.599402 674.807 0.660882 674.659C0.722362 674.511 0.812469 674.376 0.926035 674.263C1.0396 674.15 1.17439 674.06 1.32269 673.999C1.47099 673.938 1.62989 673.907 1.79026 673.907H316.381C316.542 673.907 316.701 673.938 316.849 673.999C316.997 674.06 317.132 674.15 317.245 674.263C317.359 674.376 317.449 674.511 317.511 674.659C317.572 674.807 317.604 674.966 317.604 675.126C317.604 675.286 317.572 675.445 317.511 675.593C317.449 675.742 317.359 675.876 317.245 675.989C317.132 676.103 316.997 676.192 316.849 676.253C316.701 676.314 316.542 676.346 316.381 676.345V676.345Z" fill="#3F3D56"/>
<path d="M260.541 348.084V338.623H263.784C264.854 338.623 265.668 338.837 266.227 339.266C266.786 339.695 267.065 340.334 267.065 341.183C267.065 341.616 266.948 342.006 266.714 342.353C266.481 342.699 266.138 342.968 265.688 343.159C266.199 343.297 266.593 343.559 266.87 343.945C267.152 344.326 267.293 344.785 267.293 345.322C267.293 346.211 267.007 346.893 266.435 347.369C265.867 347.846 265.053 348.084 263.992 348.084H260.541ZM262.185 343.815V346.772H264.011C264.527 346.772 264.93 346.644 265.22 346.388C265.51 346.133 265.655 345.777 265.655 345.322C265.655 344.339 265.153 343.837 264.148 343.815H262.185ZM262.185 342.606H263.797C264.308 342.606 264.706 342.491 264.992 342.262C265.283 342.028 265.428 341.699 265.428 341.274C265.428 340.806 265.293 340.468 265.025 340.26C264.761 340.052 264.347 339.948 263.784 339.948H262.185V342.606ZM271.082 348.214C270.081 348.214 269.269 347.9 268.645 347.272C268.026 346.639 267.716 345.799 267.716 344.751V344.556C267.716 343.854 267.85 343.228 268.119 342.678C268.392 342.123 268.773 341.692 269.263 341.384C269.752 341.077 270.298 340.923 270.9 340.923C271.858 340.923 272.596 341.228 273.116 341.839C273.64 342.45 273.902 343.314 273.902 344.432V345.069H269.308C269.356 345.65 269.549 346.109 269.886 346.447C270.229 346.785 270.658 346.954 271.173 346.954C271.897 346.954 272.486 346.661 272.941 346.076L273.792 346.889C273.51 347.309 273.133 347.636 272.661 347.87C272.193 348.099 271.667 348.214 271.082 348.214ZM270.894 342.19C270.46 342.19 270.11 342.342 269.841 342.645C269.577 342.948 269.408 343.371 269.334 343.912H272.343V343.795C272.308 343.267 272.167 342.868 271.92 342.6C271.674 342.327 271.331 342.19 270.894 342.19ZM278.537 348.084C278.467 347.95 278.407 347.731 278.355 347.428C277.852 347.952 277.237 348.214 276.509 348.214C275.803 348.214 275.227 348.013 274.781 347.61C274.334 347.207 274.111 346.709 274.111 346.115C274.111 345.366 274.388 344.792 274.943 344.393C275.502 343.99 276.299 343.789 277.334 343.789H278.303V343.327C278.303 342.964 278.201 342.673 277.997 342.457C277.794 342.236 277.484 342.125 277.068 342.125C276.708 342.125 276.414 342.216 276.184 342.398C275.955 342.576 275.84 342.803 275.84 343.081H274.261C274.261 342.695 274.388 342.335 274.644 342.002C274.9 341.664 275.246 341.4 275.684 341.209C276.126 341.018 276.617 340.923 277.159 340.923C277.982 340.923 278.638 341.131 279.128 341.547C279.617 341.958 279.869 342.539 279.882 343.288V346.46C279.882 347.092 279.971 347.597 280.148 347.974V348.084H278.537ZM276.802 346.947C277.113 346.947 277.406 346.871 277.679 346.72C277.956 346.568 278.164 346.364 278.303 346.109V344.783H277.451C276.866 344.783 276.427 344.885 276.132 345.089C275.838 345.292 275.69 345.58 275.69 345.953C275.69 346.256 275.79 346.499 275.989 346.681C276.193 346.858 276.464 346.947 276.802 346.947ZM284.997 347.395C284.533 347.941 283.875 348.214 283.021 348.214C282.259 348.214 281.68 347.991 281.286 347.545C280.896 347.099 280.701 346.453 280.701 345.608V341.053H282.28V345.589C282.28 346.481 282.651 346.928 283.392 346.928C284.158 346.928 284.676 346.652 284.945 346.102V341.053H286.524V348.084H285.036L284.997 347.395ZM289.312 339.344V341.053H290.554V342.223H289.312V346.148C289.312 346.416 289.364 346.611 289.468 346.733C289.577 346.85 289.767 346.908 290.04 346.908C290.222 346.908 290.406 346.886 290.593 346.843V348.065C290.233 348.164 289.886 348.214 289.553 348.214C288.34 348.214 287.733 347.545 287.733 346.206V342.223H286.577V341.053H287.733V339.344H289.312ZM292.647 348.084H291.068V341.053H292.647V348.084ZM290.97 339.227C290.97 338.984 291.046 338.783 291.198 338.623C291.354 338.462 291.575 338.382 291.861 338.382C292.147 338.382 292.367 338.462 292.523 338.623C292.679 338.783 292.757 338.984 292.757 339.227C292.757 339.465 292.679 339.665 292.523 339.825C292.367 339.981 292.147 340.059 291.861 340.059C291.575 340.059 291.354 339.981 291.198 339.825C291.046 339.665 290.97 339.465 290.97 339.227ZM294.129 348.084V342.223H293.057V341.053H294.129V340.41C294.129 339.63 294.346 339.028 294.779 338.603C295.212 338.179 295.819 337.966 296.599 337.966C296.876 337.966 297.171 338.005 297.483 338.083L297.444 339.318C297.27 339.283 297.069 339.266 296.839 339.266C296.085 339.266 295.708 339.654 295.708 340.429V341.053H297.138V342.223H295.708V348.084H294.129ZM301.753 347.395C301.289 347.941 300.631 348.214 299.777 348.214C299.015 348.214 298.436 347.991 298.042 347.545C297.652 347.099 297.457 346.453 297.457 345.608V341.053H299.036V345.589C299.036 346.481 299.407 346.928 300.148 346.928C300.914 346.928 301.432 346.652 301.701 346.102V341.053H303.28V348.084H301.792L301.753 347.395ZM305.77 348.084H304.19V338.103H305.77V348.084ZM266.565 361.907L267.683 357.053H269.223L267.306 364.084H266.006L264.499 359.256L263.017 364.084H261.717L259.794 357.053H261.334L262.471 361.855L263.914 357.053H265.103L266.565 361.907ZM272.577 364.214C271.576 364.214 270.764 363.9 270.14 363.272C269.52 362.639 269.211 361.799 269.211 360.751V360.556C269.211 359.854 269.345 359.228 269.614 358.678C269.886 358.123 270.268 357.692 270.757 357.384C271.247 357.077 271.793 356.923 272.395 356.923C273.352 356.923 274.091 357.228 274.611 357.839C275.135 358.45 275.397 359.314 275.397 360.432V361.069H270.803C270.85 361.65 271.043 362.109 271.381 362.447C271.723 362.785 272.152 362.954 272.668 362.954C273.391 362.954 273.98 362.661 274.435 362.076L275.287 362.889C275.005 363.309 274.628 363.636 274.156 363.87C273.688 364.099 273.162 364.214 272.577 364.214ZM272.388 358.19C271.955 358.19 271.604 358.342 271.336 358.645C271.071 358.948 270.902 359.371 270.829 359.912H273.837V359.795C273.803 359.267 273.662 358.868 273.415 358.6C273.168 358.327 272.826 358.19 272.388 358.19ZM282 360.64C282 361.732 281.755 362.6 281.266 363.246C280.781 363.892 280.111 364.214 279.258 364.214C278.435 364.214 277.794 363.917 277.334 363.324L277.256 364.084H275.827V354.103H277.406V357.729C277.861 357.192 278.474 356.923 279.245 356.923C280.103 356.923 280.776 357.241 281.266 357.878C281.755 358.515 282 359.405 282 360.549V360.64ZM280.421 360.504C280.421 359.741 280.287 359.169 280.018 358.788C279.75 358.407 279.36 358.216 278.849 358.216C278.164 358.216 277.683 358.515 277.406 359.113V362.011C277.687 362.622 278.173 362.928 278.862 362.928C279.355 362.928 279.737 362.743 280.005 362.375C280.274 362.007 280.412 361.45 280.421 360.705V360.504ZM288.688 360.64C288.688 361.728 288.441 362.596 287.947 363.246C287.453 363.892 286.79 364.214 285.959 364.214C285.187 364.214 284.57 363.961 284.106 363.454V366.788H282.527V357.053H283.983L284.048 357.768C284.512 357.205 285.142 356.923 285.939 356.923C286.797 356.923 287.468 357.244 287.954 357.885C288.443 358.522 288.688 359.408 288.688 360.543V360.64ZM287.115 360.504C287.115 359.802 286.974 359.245 286.693 358.834C286.416 358.422 286.017 358.216 285.497 358.216C284.852 358.216 284.388 358.483 284.106 359.016V362.135C284.392 362.681 284.86 362.954 285.51 362.954C286.013 362.954 286.405 362.752 286.686 362.349C286.972 361.942 287.115 361.327 287.115 360.504ZM293.432 364.084C293.363 363.95 293.302 363.731 293.25 363.428C292.748 363.952 292.133 364.214 291.405 364.214C290.699 364.214 290.123 364.013 289.676 363.61C289.23 363.207 289.007 362.709 289.007 362.115C289.007 361.366 289.284 360.792 289.839 360.393C290.398 359.99 291.195 359.789 292.23 359.789H293.199V359.327C293.199 358.964 293.097 358.673 292.893 358.457C292.689 358.236 292.38 358.125 291.964 358.125C291.604 358.125 291.31 358.216 291.08 358.398C290.85 358.576 290.736 358.803 290.736 359.081H289.157C289.157 358.695 289.284 358.335 289.54 358.002C289.796 357.664 290.142 357.4 290.58 357.209C291.022 357.018 291.513 356.923 292.055 356.923C292.878 356.923 293.534 357.131 294.024 357.547C294.513 357.958 294.765 358.539 294.778 359.288V362.46C294.778 363.092 294.866 363.597 295.044 363.974V364.084H293.432ZM291.697 362.947C292.009 362.947 292.302 362.871 292.575 362.72C292.852 362.568 293.06 362.364 293.199 362.109V360.783H292.347C291.762 360.783 291.323 360.885 291.028 361.089C290.733 361.292 290.586 361.58 290.586 361.953C290.586 362.256 290.686 362.499 290.885 362.681C291.089 362.858 291.359 362.947 291.697 362.947ZM295.357 360.517C295.357 359.425 295.612 358.554 296.124 357.904C296.639 357.25 297.321 356.923 298.171 356.923C298.972 356.923 299.602 357.202 300.062 357.761L300.133 357.053H301.556V363.87C301.556 364.793 301.268 365.52 300.692 366.053C300.12 366.586 299.347 366.853 298.372 366.853C297.856 366.853 297.352 366.744 296.858 366.528C296.368 366.315 295.996 366.036 295.74 365.689L296.487 364.741C296.973 365.317 297.571 365.605 298.281 365.605C298.805 365.605 299.219 365.462 299.522 365.176C299.825 364.894 299.977 364.479 299.977 363.928V363.454C299.522 363.961 298.916 364.214 298.158 364.214C297.334 364.214 296.661 363.887 296.137 363.233C295.617 362.579 295.357 361.673 295.357 360.517ZM296.929 360.653C296.929 361.359 297.072 361.916 297.358 362.323C297.649 362.726 298.049 362.928 298.56 362.928C299.197 362.928 299.67 362.655 299.977 362.109V359.016C299.678 358.483 299.21 358.216 298.573 358.216C298.054 358.216 297.649 358.422 297.358 358.834C297.072 359.245 296.929 359.852 296.929 360.653ZM305.482 364.214C304.481 364.214 303.669 363.9 303.045 363.272C302.426 362.639 302.116 361.799 302.116 360.751V360.556C302.116 359.854 302.25 359.228 302.519 358.678C302.792 358.123 303.173 357.692 303.662 357.384C304.152 357.077 304.698 356.923 305.3 356.923C306.257 356.923 306.996 357.228 307.516 357.839C308.04 358.45 308.302 359.314 308.302 360.432V361.069H303.708C303.756 361.65 303.948 362.109 304.286 362.447C304.629 362.785 305.057 362.954 305.573 362.954C306.296 362.954 306.886 362.661 307.341 362.076L308.192 362.889C307.91 363.309 307.533 363.636 307.061 363.87C306.593 364.099 306.067 364.214 305.482 364.214ZM305.294 358.19C304.86 358.19 304.509 358.342 304.241 358.645C303.977 358.948 303.808 359.371 303.734 359.912H306.743V359.795C306.708 359.267 306.567 358.868 306.32 358.6C306.073 358.327 305.731 358.19 305.294 358.19ZM312.677 362.174C312.677 361.892 312.56 361.678 312.326 361.53C312.096 361.383 311.713 361.253 311.175 361.141C310.638 361.028 310.19 360.885 309.83 360.712C309.042 360.33 308.648 359.778 308.648 359.055C308.648 358.448 308.903 357.941 309.414 357.534C309.926 357.127 310.575 356.923 311.364 356.923C312.204 356.923 312.882 357.131 313.398 357.547C313.918 357.963 314.178 358.502 314.178 359.165H312.599C312.599 358.862 312.486 358.61 312.261 358.411C312.035 358.208 311.736 358.106 311.364 358.106C311.017 358.106 310.734 358.186 310.513 358.346C310.296 358.507 310.188 358.721 310.188 358.99C310.188 359.232 310.289 359.421 310.493 359.555C310.697 359.689 311.108 359.826 311.728 359.964C312.347 360.099 312.832 360.261 313.183 360.452C313.539 360.638 313.801 360.863 313.97 361.128C314.143 361.392 314.23 361.712 314.23 362.089C314.23 362.722 313.968 363.235 313.443 363.629C312.919 364.019 312.232 364.214 311.383 364.214C310.807 364.214 310.294 364.11 309.843 363.902C309.393 363.694 309.042 363.408 308.79 363.045C308.539 362.681 308.414 362.289 308.414 361.868H309.947C309.969 362.241 310.11 362.529 310.37 362.733C310.63 362.932 310.974 363.032 311.403 363.032C311.819 363.032 312.135 362.954 312.352 362.798C312.568 362.637 312.677 362.429 312.677 362.174Z" fill="black" fill-opacity="0.69"/>
</g>
<defs>
<clipPath id="clip0">
<rect width="812.979" height="517.345" fill="white" transform="translate(0.571289 159)"/>
</clipPath>
</defs>
</svg>
