<svg width="813" height="677" viewBox="0 0 813 677" fill="none" xmlns="http://www.w3.org/2000/svg">
<path d="M696.379 54.5811C693.779 37.6888 693.779 20.498 696.379 3.60573C696.544 2.60036 697.061 1.68612 697.836 1.02584C698.612 0.365558 699.597 0.00207249 700.616 2.1441e-05H740.489C741.135 -0.00203158 741.773 0.143377 742.354 0.425192C742.936 0.707007 743.445 1.11778 743.844 1.62624C744.251 2.14165 744.536 2.74325 744.676 3.38521C744.816 4.02718 744.807 4.6926 744.651 5.33083C740.922 20.953 740.922 37.2338 744.651 52.856C744.807 53.4942 744.816 54.1596 744.676 54.8015C744.536 55.4435 744.252 56.0451 743.844 56.5605C743.445 57.069 742.936 57.4797 742.354 57.7616C741.773 58.0434 741.135 58.1888 740.489 58.1868H700.616C699.597 58.1847 698.612 57.8212 697.836 57.1609C697.061 56.5006 696.544 55.5864 696.379 54.5811V54.5811Z" fill="#6C63FF"/>
<path d="M728.219 24.6766H707.295C706.5 24.6757 705.737 24.3594 705.175 23.7969C704.612 23.2345 704.296 22.472 704.295 21.6766V20.5047C704.296 19.7093 704.612 18.9468 705.175 18.3843C705.737 17.8219 706.5 17.5056 707.295 17.5047H728.219C729.014 17.5056 729.777 17.8219 730.339 18.3843C730.901 18.9468 731.218 19.7093 731.219 20.5047V21.6766C731.218 22.472 730.901 23.2345 730.339 23.7969C729.777 24.3594 729.014 24.6757 728.219 24.6766Z" fill="white"/>
<path d="M728.219 37.0213H707.295C706.5 37.0204 705.737 36.7041 705.175 36.1417C704.612 35.5792 704.296 34.8167 704.295 34.0213V32.8489C704.296 32.0536 704.612 31.291 705.175 30.7286C705.737 30.1662 706.5 29.8498 707.295 29.8489H728.219C729.014 29.8498 729.777 30.1662 730.339 30.7286C730.901 31.291 731.218 32.0536 731.219 32.8489V34.0213C731.218 34.8167 730.901 35.5792 730.339 36.1417C729.777 36.7041 729.014 37.0204 728.219 37.0213Z" fill="white"/>
<path d="M719.429 36C547.929 889.5 217.429 347.5 261.929 429.5" stroke="#6C63FF" stroke-width="2"/>
<g clip-path="url(#clip0)">
<path d="M45.576 674.836C33.0341 673.804 21.9612 664.73 15.6642 653.835C13.5524 650.181 12.1055 645.388 14.4969 641.911C15.1814 640.916 16.1274 640.129 17.2306 639.637C18.3338 639.145 19.5514 638.967 20.7492 639.123C21.9471 639.278 23.0787 639.762 24.0194 640.52C24.9601 641.277 25.6734 642.28 26.0806 643.417C25.3103 639.149 24.9794 634.812 25.0928 630.476C25.1892 626.805 25.8829 622.654 28.9355 620.613C32.477 618.244 37.5816 620.125 40.1575 623.518C42.7334 626.912 43.4324 631.326 44.0507 635.542C43.5459 633.757 43.4967 631.875 43.9075 630.067C44.3183 628.259 45.176 626.583 46.4021 625.192C47.6282 623.801 49.1836 622.739 50.9259 622.105C52.6682 621.471 54.5417 621.283 56.3752 621.56C61.5622 622.343 65.6255 626.834 67.2111 631.835C68.7966 636.835 68.3016 642.257 67.2811 647.403C66.0845 653.437 64.1425 659.422 60.6462 664.483C57.15 669.544 51.9567 673.624 45.9314 674.862L45.576 674.836Z" fill="#F2F2F2"/>
<path d="M812.979 267.517C812.979 290.023 805.984 311.972 792.962 330.328C779.94 348.683 761.535 362.538 740.293 369.974C739.617 370.209 738.932 370.445 738.246 370.66V260.392H596.18C596.221 259.706 596.272 259.02 596.334 258.344H738.246V236.805C738.245 235.447 737.706 234.146 736.746 233.186C735.786 232.226 734.484 231.687 733.127 231.686H602.005C602.241 231 602.487 230.314 602.753 229.638C611.636 205.796 628.613 185.832 650.72 173.235C672.826 160.638 698.656 156.208 723.696 160.72C748.737 165.232 771.396 178.398 787.715 197.919C804.035 217.439 812.977 242.073 812.979 267.517V267.517Z" fill="#492A8B" fill-opacity="0.78"/>
<path d="M733.127 229.638H234.563C232.663 229.641 230.841 230.396 229.498 231.74C228.154 233.083 227.399 234.905 227.396 236.805V574.641C227.399 576.541 228.154 578.362 229.498 579.706C230.841 581.049 232.663 581.805 234.563 581.807H733.127C735.027 581.805 736.849 581.049 738.192 579.706C739.536 578.362 740.291 576.541 740.293 574.641V236.805C740.291 234.905 739.536 233.083 738.192 231.74C736.849 230.396 735.027 229.641 733.127 229.638V229.638ZM738.246 574.641C738.245 575.998 737.706 577.3 736.746 578.26C735.786 579.22 734.485 579.759 733.127 579.76H234.563C233.205 579.759 231.904 579.22 230.944 578.26C229.984 577.3 229.445 575.998 229.444 574.641V236.805C229.445 235.447 229.984 234.146 230.944 233.186C231.904 232.226 233.205 231.686 234.563 231.686H733.127C734.485 231.686 735.786 232.226 736.746 233.186C737.706 234.146 738.245 235.447 738.246 236.805V574.641Z" fill="#3F3D56"/>
<path d="M739.27 258.344H228.42V260.392H739.27V258.344Z" fill="#3F3D56"/>
<path d="M245.824 251.137C249.216 251.137 251.966 248.387 251.966 244.995C251.966 241.602 249.216 238.852 245.824 238.852C242.431 238.852 239.681 241.602 239.681 244.995C239.681 248.387 242.431 251.137 245.824 251.137Z" fill="#B107A0"/>
<path d="M263.484 251.137C266.876 251.137 269.626 248.387 269.626 244.995C269.626 241.602 266.876 238.852 263.484 238.852C260.091 238.852 257.341 241.602 257.341 244.995C257.341 248.387 260.091 251.137 263.484 251.137Z" fill="#B107A0"/>
<path d="M281.143 251.137C284.535 251.137 287.286 248.387 287.286 244.995C287.286 241.602 284.535 238.852 281.143 238.852C277.751 238.852 275.001 241.602 275.001 244.995C275.001 248.387 277.751 251.137 281.143 251.137Z" fill="#B107A0"/>
<path d="M366.501 277.755H276.412C274.512 277.757 272.69 278.512 271.347 279.856C270.003 281.199 269.247 283.021 269.245 284.921V375.01C269.247 376.91 270.003 378.732 271.347 380.075C272.69 381.419 274.512 382.175 276.412 382.177H366.501C368.401 382.175 370.223 381.419 371.566 380.075C372.91 378.732 373.665 376.91 373.667 375.01V284.921C373.665 283.021 372.91 281.199 371.566 279.856C370.223 278.512 368.401 277.757 366.501 277.755V277.755ZM371.62 375.01C371.619 376.368 371.08 377.669 370.12 378.629C369.16 379.589 367.859 380.129 366.501 380.129H276.412C275.054 380.129 273.752 379.589 272.793 378.629C271.833 377.669 271.293 376.368 271.293 375.01V284.921C271.293 283.563 271.833 282.262 272.793 281.302C273.752 280.342 275.054 279.803 276.412 279.802H366.501C367.859 279.803 369.16 280.342 370.12 281.302C371.08 282.262 371.619 283.563 371.62 284.921V375.01Z" fill="#3F3D56"/>
<path d="M633.187 336.108H543.097C541.334 336.111 539.643 336.814 538.396 338.061C537.149 339.308 536.447 340.999 536.443 342.762V432.852C536.447 434.616 537.149 436.307 538.396 437.554C539.643 438.801 541.334 439.503 543.097 439.506H633.187C634.951 439.503 636.642 438.801 637.889 437.554C639.136 436.307 639.838 434.616 639.841 432.852V342.762C639.838 340.999 639.136 339.308 637.889 338.061C636.642 336.814 634.951 336.111 633.187 336.108V336.108Z" fill="#6C63FF"/>
<path d="M546.702 358.074L549.432 365.326L552.155 358.074H554.279V367.535H552.642V364.416L552.804 360.244L550.01 367.535H548.834L546.046 360.251L546.208 364.416V367.535H544.571V358.074H546.702ZM554.982 363.955C554.982 363.266 555.119 362.647 555.391 362.096C555.664 361.542 556.048 361.117 556.542 360.823C557.036 360.524 557.603 360.374 558.244 360.374C559.193 360.374 559.962 360.68 560.551 361.291C561.145 361.901 561.465 362.711 561.513 363.721L561.519 364.091C561.519 364.784 561.385 365.404 561.117 365.95C560.852 366.496 560.471 366.918 559.973 367.217C559.479 367.516 558.907 367.665 558.257 367.665C557.265 367.665 556.47 367.336 555.872 366.678C555.279 366.015 554.982 365.133 554.982 364.033V363.955ZM556.561 364.091C556.561 364.815 556.711 365.382 557.01 365.794C557.309 366.201 557.724 366.405 558.257 366.405C558.79 366.405 559.204 366.197 559.498 365.781C559.797 365.365 559.947 364.756 559.947 363.955C559.947 363.244 559.793 362.681 559.485 362.265C559.182 361.849 558.768 361.641 558.244 361.641C557.729 361.641 557.319 361.847 557.016 362.259C556.713 362.666 556.561 363.277 556.561 364.091ZM568.227 364.091C568.227 365.183 567.982 366.052 567.492 366.697C567.007 367.343 566.338 367.665 565.484 367.665C564.661 367.665 564.02 367.369 563.561 366.775L563.483 367.535H562.053V357.554H563.632V361.18C564.087 360.643 564.7 360.374 565.471 360.374C566.329 360.374 567.003 360.693 567.492 361.329C567.982 361.966 568.227 362.857 568.227 364V364.091ZM566.647 363.955C566.647 363.192 566.513 362.621 566.245 362.239C565.976 361.858 565.586 361.667 565.075 361.667C564.39 361.667 563.909 361.966 563.632 362.564V365.462C563.914 366.073 564.399 366.379 565.088 366.379C565.582 366.379 565.963 366.195 566.232 365.826C566.5 365.458 566.639 364.901 566.647 364.156V363.955ZM570.437 367.535H568.858V360.504H570.437V367.535ZM568.76 358.678C568.76 358.436 568.836 358.234 568.988 358.074C569.144 357.914 569.365 357.833 569.651 357.833C569.936 357.833 570.157 357.914 570.313 358.074C570.469 358.234 570.547 358.436 570.547 358.678C570.547 358.916 570.469 359.116 570.313 359.276C570.157 359.432 569.936 359.51 569.651 359.51C569.365 359.51 569.144 359.432 568.988 359.276C568.836 359.116 568.76 358.916 568.76 358.678ZM573.043 367.535H571.464V357.554H573.043V367.535ZM577.067 367.665C576.066 367.665 575.254 367.351 574.63 366.723C574.01 366.091 573.701 365.25 573.701 364.202V364.007C573.701 363.305 573.835 362.679 574.103 362.129C574.376 361.574 574.758 361.143 575.247 360.836C575.737 360.528 576.283 360.374 576.885 360.374C577.842 360.374 578.581 360.68 579.101 361.291C579.625 361.901 579.887 362.766 579.887 363.883V364.52H575.293C575.34 365.101 575.533 365.56 575.871 365.898C576.213 366.236 576.642 366.405 577.158 366.405C577.881 366.405 578.47 366.112 578.925 365.527L579.777 366.34C579.495 366.76 579.118 367.087 578.646 367.321C578.178 367.551 577.652 367.665 577.067 367.665ZM576.878 361.641C576.445 361.641 576.094 361.793 575.826 362.096C575.561 362.4 575.392 362.822 575.319 363.363H578.327V363.247C578.293 362.718 578.152 362.319 577.905 362.051C577.658 361.778 577.316 361.641 576.878 361.641ZM550.023 379.526H546.215V383.535H544.571V374.074H550.582V375.399H546.215V378.213H550.023V379.526ZM552.617 383.535H551.038V376.504H552.617V383.535ZM550.94 374.678C550.94 374.436 551.016 374.234 551.168 374.074C551.323 373.914 551.544 373.833 551.83 373.833C552.116 373.833 552.337 373.914 552.493 374.074C552.649 374.234 552.727 374.436 552.727 374.678C552.727 374.916 552.649 375.116 552.493 375.276C552.337 375.432 552.116 375.51 551.83 375.51C551.544 375.51 551.323 375.432 551.168 375.276C551.016 375.116 550.94 374.916 550.94 374.678ZM557.225 377.947C557.017 377.912 556.802 377.895 556.581 377.895C555.858 377.895 555.371 378.172 555.119 378.727V383.535H553.54V376.504H555.048L555.087 377.291C555.468 376.68 555.997 376.374 556.672 376.374C556.898 376.374 557.084 376.405 557.231 376.465L557.225 377.947ZM561.365 381.625C561.365 381.343 561.248 381.129 561.014 380.982C560.785 380.834 560.401 380.704 559.864 380.592C559.327 380.479 558.878 380.336 558.519 380.163C557.73 379.782 557.336 379.229 557.336 378.506C557.336 377.899 557.592 377.392 558.103 376.985C558.614 376.578 559.264 376.374 560.052 376.374C560.893 376.374 561.571 376.582 562.086 376.998C562.606 377.414 562.866 377.953 562.866 378.616H561.287C561.287 378.313 561.174 378.062 560.949 377.862C560.724 377.659 560.425 377.557 560.052 377.557C559.706 377.557 559.422 377.637 559.201 377.797C558.984 377.958 558.876 378.172 558.876 378.441C558.876 378.683 558.978 378.872 559.182 379.006C559.385 379.14 559.797 379.277 560.416 379.415C561.036 379.55 561.521 379.712 561.872 379.903C562.227 380.089 562.489 380.314 562.658 380.579C562.832 380.843 562.918 381.164 562.918 381.54C562.918 382.173 562.656 382.686 562.132 383.081C561.608 383.47 560.921 383.665 560.072 383.665C559.496 383.665 558.982 383.561 558.532 383.354C558.081 383.146 557.73 382.86 557.479 382.496C557.228 382.132 557.102 381.74 557.102 381.32H558.636C558.657 381.692 558.798 381.98 559.058 382.184C559.318 382.383 559.662 382.483 560.091 382.483C560.507 382.483 560.824 382.405 561.04 382.249C561.257 382.088 561.365 381.881 561.365 381.625ZM565.479 374.795V376.504H566.721V377.674H565.479V381.599C565.479 381.868 565.531 382.062 565.635 382.184C565.744 382.301 565.934 382.359 566.207 382.359C566.389 382.359 566.573 382.338 566.76 382.294V383.516C566.4 383.616 566.053 383.665 565.72 383.665C564.507 383.665 563.9 382.996 563.9 381.657V377.674H562.744V376.504H563.9V374.795H565.479Z" fill="black" fill-opacity="0.69"/>
<path d="M691.153 300.789H601.064C599.3 300.792 597.609 301.494 596.362 302.742C595.115 303.989 594.413 305.679 594.409 307.443V397.533C594.413 399.297 595.115 400.987 596.362 402.234C597.609 403.482 599.3 404.184 601.064 404.187H691.153C692.917 404.184 694.608 403.482 695.855 402.234C697.102 400.987 697.804 399.297 697.808 397.533V307.443C697.804 305.679 697.102 303.989 695.855 302.742C694.608 301.494 692.917 300.792 691.153 300.789V300.789Z" fill="#E6E6E6"/>
<path d="M615.263 326.577C615.168 327.586 614.795 328.375 614.145 328.942C613.495 329.505 612.631 329.787 611.552 329.787C610.799 329.787 610.134 329.609 609.557 329.254C608.986 328.894 608.544 328.385 608.232 327.727C607.92 327.068 607.757 326.304 607.744 325.433V324.549C607.744 323.657 607.903 322.87 608.219 322.19C608.535 321.51 608.988 320.986 609.577 320.618C610.17 320.249 610.855 320.065 611.63 320.065C612.674 320.065 613.515 320.349 614.152 320.917C614.789 321.484 615.159 322.286 615.263 323.321H613.625C613.547 322.641 613.348 322.151 613.028 321.852C612.711 321.549 612.246 321.397 611.63 321.397C610.916 321.397 610.365 321.66 609.98 322.184C609.599 322.704 609.404 323.468 609.395 324.478V325.316C609.395 326.338 609.577 327.118 609.941 327.655C610.309 328.193 610.846 328.461 611.552 328.461C612.198 328.461 612.683 328.316 613.008 328.026C613.333 327.736 613.539 327.253 613.625 326.577H615.263ZM617.467 329.657H615.888V319.675H617.467V329.657ZM620.073 329.657H618.494V322.626H620.073V329.657ZM618.397 320.8C618.397 320.557 618.473 320.356 618.624 320.195C618.78 320.035 619.001 319.955 619.287 319.955C619.573 319.955 619.794 320.035 619.95 320.195C620.106 320.356 620.184 320.557 620.184 320.8C620.184 321.038 620.106 321.237 619.95 321.397C619.794 321.553 619.573 321.631 619.287 321.631C619.001 321.631 618.78 321.553 618.624 321.397C618.473 321.237 618.397 321.038 618.397 320.8ZM624.097 329.787C623.096 329.787 622.284 329.473 621.66 328.845C621.04 328.212 620.731 327.372 620.731 326.323V326.128C620.731 325.426 620.865 324.8 621.133 324.25C621.406 323.696 621.788 323.265 622.277 322.957C622.767 322.649 623.313 322.496 623.915 322.496C624.872 322.496 625.611 322.801 626.131 323.412C626.655 324.023 626.917 324.887 626.917 326.005V326.642H622.323C622.37 327.222 622.563 327.681 622.901 328.019C623.243 328.357 623.672 328.526 624.188 328.526C624.911 328.526 625.5 328.234 625.955 327.649L626.806 328.461C626.525 328.881 626.148 329.209 625.676 329.442C625.208 329.672 624.682 329.787 624.097 329.787ZM623.908 323.763C623.475 323.763 623.124 323.915 622.855 324.218C622.591 324.521 622.422 324.943 622.349 325.485H625.357V325.368C625.323 324.839 625.182 324.441 624.935 324.172C624.688 323.899 624.346 323.763 623.908 323.763ZM628.815 322.626L628.861 323.438C629.381 322.81 630.063 322.496 630.908 322.496C632.372 322.496 633.117 323.334 633.143 325.011V329.657H631.564V325.102C631.564 324.655 631.467 324.326 631.272 324.114C631.081 323.897 630.767 323.789 630.329 323.789C629.693 323.789 629.218 324.077 628.906 324.653V329.657H627.327V322.626H628.815ZM635.938 320.917V322.626H637.179V323.795H635.938V327.72C635.938 327.989 635.99 328.184 636.094 328.305C636.203 328.422 636.393 328.481 636.666 328.481C636.848 328.481 637.032 328.459 637.218 328.416V329.637C636.859 329.737 636.512 329.787 636.179 329.787C634.966 329.787 634.359 329.118 634.359 327.779V323.795H633.202V322.626H634.359V320.917H635.938ZM611.832 343.746C611.832 343.465 611.715 343.25 611.481 343.103C611.251 342.956 610.868 342.826 610.331 342.713C609.794 342.601 609.345 342.458 608.986 342.284C608.197 341.903 607.803 341.351 607.803 340.627C607.803 340.021 608.058 339.514 608.57 339.107C609.081 338.699 609.731 338.496 610.519 338.496C611.36 338.496 612.038 338.704 612.553 339.12C613.073 339.535 613.333 340.075 613.333 340.738H611.754C611.754 340.434 611.641 340.183 611.416 339.984C611.191 339.78 610.892 339.678 610.519 339.678C610.173 339.678 609.889 339.759 609.668 339.919C609.451 340.079 609.343 340.294 609.343 340.562C609.343 340.805 609.445 340.993 609.648 341.128C609.852 341.262 610.264 341.398 610.883 341.537C611.503 341.671 611.988 341.834 612.339 342.024C612.694 342.211 612.956 342.436 613.125 342.7C613.298 342.964 613.385 343.285 613.385 343.662C613.385 344.294 613.123 344.808 612.599 345.202C612.074 345.592 611.388 345.787 610.539 345.787C609.962 345.787 609.449 345.683 608.999 345.475C608.548 345.267 608.197 344.981 607.946 344.617C607.695 344.253 607.569 343.861 607.569 343.441H609.103C609.124 343.814 609.265 344.102 609.525 344.305C609.785 344.505 610.129 344.604 610.558 344.604C610.974 344.604 611.29 344.526 611.507 344.37C611.724 344.21 611.832 344.002 611.832 343.746ZM618.169 345.657C618.099 345.523 618.039 345.304 617.987 345.001C617.484 345.525 616.869 345.787 616.141 345.787C615.435 345.787 614.859 345.585 614.413 345.183C613.966 344.78 613.743 344.281 613.743 343.688C613.743 342.938 614.02 342.364 614.575 341.966C615.134 341.563 615.931 341.361 616.966 341.361H617.935V340.9C617.935 340.536 617.833 340.246 617.629 340.029C617.426 339.808 617.116 339.698 616.7 339.698C616.34 339.698 616.046 339.789 615.816 339.971C615.587 340.148 615.472 340.376 615.472 340.653H613.893C613.893 340.268 614.02 339.908 614.276 339.574C614.532 339.237 614.878 338.972 615.316 338.782C615.758 338.591 616.249 338.496 616.791 338.496C617.614 338.496 618.27 338.704 618.76 339.12C619.249 339.531 619.501 340.112 619.514 340.861V344.032C619.514 344.665 619.603 345.17 619.78 345.546V345.657H618.169ZM616.434 344.52C616.745 344.52 617.038 344.444 617.311 344.292C617.588 344.141 617.796 343.937 617.935 343.681V342.356H617.083C616.498 342.356 616.059 342.458 615.764 342.661C615.47 342.865 615.322 343.153 615.322 343.525C615.322 343.829 615.422 344.071 615.621 344.253C615.825 344.431 616.096 344.52 616.434 344.52ZM622.348 336.917V338.626H623.589V339.795H622.348V343.72C622.348 343.989 622.4 344.184 622.504 344.305C622.612 344.422 622.803 344.481 623.076 344.481C623.258 344.481 623.442 344.459 623.628 344.416V345.637C623.268 345.737 622.922 345.787 622.588 345.787C621.375 345.787 620.769 345.118 620.769 343.779V339.795H619.612V338.626H620.769V336.917H622.348ZM625.682 345.657H624.103V338.626H625.682V345.657ZM624.006 336.8C624.006 336.557 624.082 336.356 624.233 336.195C624.389 336.035 624.61 335.955 624.896 335.955C625.182 335.955 625.403 336.035 625.559 336.195C625.715 336.356 625.793 336.557 625.793 336.8C625.793 337.038 625.715 337.237 625.559 337.397C625.403 337.553 625.182 337.631 624.896 337.631C624.61 337.631 624.389 337.553 624.233 337.397C624.082 337.237 624.006 337.038 624.006 336.8ZM630.55 343.746C630.55 343.465 630.433 343.25 630.199 343.103C629.97 342.956 629.586 342.826 629.049 342.713C628.512 342.601 628.064 342.458 627.704 342.284C626.916 341.903 626.521 341.351 626.521 340.627C626.521 340.021 626.777 339.514 627.288 339.107C627.799 338.699 628.449 338.496 629.238 338.496C630.078 338.496 630.756 338.704 631.272 339.12C631.792 339.535 632.051 340.075 632.051 340.738H630.472C630.472 340.434 630.36 340.183 630.134 339.984C629.909 339.78 629.61 339.678 629.238 339.678C628.891 339.678 628.607 339.759 628.386 339.919C628.17 340.079 628.061 340.294 628.061 340.562C628.061 340.805 628.163 340.993 628.367 341.128C628.571 341.262 628.982 341.398 629.602 341.537C630.221 341.671 630.706 341.834 631.057 342.024C631.412 342.211 631.675 342.436 631.844 342.7C632.017 342.964 632.103 343.285 632.103 343.662C632.103 344.294 631.841 344.808 631.317 345.202C630.793 345.592 630.106 345.787 629.257 345.787C628.681 345.787 628.168 345.683 627.717 345.475C627.266 345.267 626.916 344.981 626.664 344.617C626.413 344.253 626.287 343.861 626.287 343.441H627.821C627.843 343.814 627.983 344.102 628.243 344.305C628.503 344.505 628.848 344.604 629.277 344.604C629.693 344.604 630.009 344.526 630.225 344.37C630.442 344.21 630.55 344.002 630.55 343.746ZM633.241 345.657V339.795H632.169V338.626H633.241V337.982C633.241 337.203 633.458 336.6 633.891 336.176C634.325 335.751 634.931 335.539 635.711 335.539C635.988 335.539 636.283 335.578 636.595 335.656L636.556 336.891C636.382 336.856 636.181 336.839 635.951 336.839C635.197 336.839 634.821 337.226 634.821 338.002V338.626H636.25V339.795H634.821V345.657H633.241ZM640.806 345.657C640.737 345.523 640.676 345.304 640.624 345.001C640.122 345.525 639.507 345.787 638.779 345.787C638.073 345.787 637.497 345.585 637.05 345.183C636.604 344.78 636.381 344.281 636.381 343.688C636.381 342.938 636.658 342.364 637.213 341.966C637.772 341.563 638.569 341.361 639.604 341.361H640.572V340.9C640.572 340.536 640.471 340.246 640.267 340.029C640.063 339.808 639.754 339.698 639.338 339.698C638.978 339.698 638.684 339.789 638.454 339.971C638.224 340.148 638.11 340.376 638.11 340.653H636.53C636.53 340.268 636.658 339.908 636.914 339.574C637.169 339.237 637.516 338.972 637.954 338.782C638.395 338.591 638.887 338.496 639.429 338.496C640.252 338.496 640.908 338.704 641.398 339.12C641.887 339.531 642.139 340.112 642.152 340.861V344.032C642.152 344.665 642.24 345.17 642.418 345.546V345.657H640.806ZM639.071 344.52C639.383 344.52 639.676 344.444 639.949 344.292C640.226 344.141 640.434 343.937 640.572 343.681V342.356H639.721C639.136 342.356 638.697 342.458 638.402 342.661C638.107 342.865 637.96 343.153 637.96 343.525C637.96 343.829 638.06 344.071 638.259 344.253C638.463 344.431 638.733 344.52 639.071 344.52ZM645.895 344.526C646.29 344.526 646.617 344.411 646.877 344.182C647.137 343.952 647.275 343.668 647.293 343.33H648.781C648.763 343.768 648.627 344.177 648.371 344.559C648.116 344.936 647.769 345.235 647.332 345.455C646.894 345.676 646.422 345.787 645.915 345.787C644.931 345.787 644.152 345.468 643.575 344.832C642.999 344.195 642.711 343.315 642.711 342.193V342.031C642.711 340.961 642.997 340.105 643.569 339.464C644.141 338.818 644.921 338.496 645.908 338.496C646.745 338.496 647.425 338.74 647.949 339.23C648.477 339.715 648.755 340.354 648.781 341.147H647.293C647.275 340.744 647.137 340.413 646.877 340.153C646.621 339.893 646.294 339.763 645.895 339.763C645.384 339.763 644.99 339.949 644.713 340.322C644.435 340.69 644.295 341.251 644.29 342.005V342.258C644.29 343.021 644.427 343.59 644.7 343.967C644.977 344.34 645.376 344.526 645.895 344.526ZM651.153 336.917V338.626H652.395V339.795H651.153V343.72C651.153 343.989 651.205 344.184 651.309 344.305C651.418 344.422 651.608 344.481 651.881 344.481C652.063 344.481 652.247 344.459 652.434 344.416V345.637C652.074 345.737 651.727 345.787 651.394 345.787C650.181 345.787 649.574 345.118 649.574 343.779V339.795H648.418V338.626H649.574V336.917H651.153ZM654.488 345.657H652.909V338.626H654.488V345.657ZM652.811 336.8C652.811 336.557 652.887 336.356 653.039 336.195C653.195 336.035 653.416 335.955 653.702 335.955C653.987 335.955 654.208 336.035 654.364 336.195C654.52 336.356 654.598 336.557 654.598 336.8C654.598 337.038 654.52 337.237 654.364 337.397C654.208 337.553 653.987 337.631 653.702 337.631C653.416 337.631 653.195 337.553 653.039 337.397C652.887 337.237 652.811 337.038 652.811 336.8ZM655.119 342.076C655.119 341.387 655.255 340.768 655.528 340.218C655.801 339.663 656.185 339.239 656.679 338.944C657.172 338.645 657.74 338.496 658.381 338.496C659.33 338.496 660.099 338.801 660.688 339.412C661.282 340.023 661.602 340.833 661.65 341.842L661.656 342.213C661.656 342.906 661.522 343.525 661.253 344.071C660.989 344.617 660.608 345.04 660.11 345.339C659.616 345.637 659.044 345.787 658.394 345.787C657.402 345.787 656.607 345.458 656.009 344.799C655.416 344.136 655.119 343.255 655.119 342.154V342.076ZM656.698 342.213C656.698 342.936 656.848 343.504 657.146 343.915C657.445 344.323 657.861 344.526 658.394 344.526C658.927 344.526 659.341 344.318 659.635 343.902C659.934 343.486 660.084 342.878 660.084 342.076C660.084 341.366 659.93 340.803 659.622 340.387C659.319 339.971 658.905 339.763 658.381 339.763C657.866 339.763 657.456 339.969 657.153 340.38C656.85 340.787 656.698 341.398 656.698 342.213ZM663.659 338.626L663.704 339.438C664.224 338.81 664.906 338.496 665.751 338.496C667.215 338.496 667.961 339.334 667.987 341.011V345.657H666.407V341.102C666.407 340.655 666.31 340.326 666.115 340.114C665.924 339.897 665.61 339.789 665.173 339.789C664.536 339.789 664.061 340.077 663.75 340.653V345.657H662.17V338.626H663.659Z" fill="black"/>
<path d="M556.406 404.699H466.316C464.552 404.703 462.862 405.405 461.615 406.652C460.367 407.899 459.665 409.59 459.662 411.353V501.443C459.665 503.207 460.367 504.897 461.615 506.145C462.862 507.392 464.552 508.094 466.316 508.097H556.406C558.17 508.094 559.86 507.392 561.107 506.145C562.355 504.897 563.057 503.207 563.06 501.443V411.353C563.057 409.59 562.355 407.899 561.107 406.652C559.86 405.405 558.17 404.703 556.406 404.699V404.699Z" fill="#E971DD"/>
<path d="M502.352 427.689V434.012C502.352 435.017 502.029 435.814 501.384 436.403C500.743 436.988 499.887 437.28 498.817 437.28C497.734 437.28 496.874 436.992 496.237 436.416C495.6 435.835 495.282 435.032 495.282 434.005V427.689H496.919V434.018C496.919 434.651 497.08 435.134 497.4 435.467C497.721 435.801 498.193 435.968 498.817 435.968C500.082 435.968 500.714 435.3 500.714 433.966V427.689H502.352ZM507.103 435.24C507.103 434.958 506.986 434.744 506.752 434.596C506.523 434.449 506.139 434.319 505.602 434.207C505.065 434.094 504.616 433.951 504.257 433.778C503.468 433.396 503.074 432.844 503.074 432.121C503.074 431.514 503.33 431.007 503.841 430.6C504.352 430.193 505.002 429.989 505.79 429.989C506.631 429.989 507.309 430.197 507.824 430.613C508.344 431.029 508.604 431.568 508.604 432.231H507.025C507.025 431.928 506.913 431.676 506.687 431.477C506.462 431.274 506.163 431.172 505.79 431.172C505.444 431.172 505.16 431.252 504.939 431.412C504.723 431.573 504.614 431.787 504.614 432.056C504.614 432.298 504.716 432.487 504.92 432.621C505.123 432.755 505.535 432.892 506.154 433.03C506.774 433.165 507.259 433.327 507.61 433.518C507.965 433.704 508.227 433.929 508.396 434.194C508.57 434.458 508.656 434.778 508.656 435.155C508.656 435.788 508.394 436.301 507.87 436.695C507.346 437.085 506.659 437.28 505.81 437.28C505.234 437.28 504.72 437.176 504.27 436.968C503.819 436.76 503.468 436.474 503.217 436.111C502.966 435.747 502.84 435.355 502.84 434.934H504.374C504.395 435.307 504.536 435.595 504.796 435.799C505.056 435.998 505.401 436.098 505.829 436.098C506.245 436.098 506.562 436.02 506.778 435.864C506.995 435.703 507.103 435.495 507.103 435.24ZM512.335 437.28C511.334 437.28 510.522 436.966 509.898 436.338C509.279 435.705 508.969 434.865 508.969 433.817V433.622C508.969 432.92 509.103 432.294 509.372 431.744C509.645 431.189 510.026 430.758 510.516 430.45C511.005 430.143 511.551 429.989 512.153 429.989C513.111 429.989 513.849 430.294 514.369 430.905C514.893 431.516 515.155 432.38 515.155 433.498V434.135H510.561C510.609 434.716 510.801 435.175 511.139 435.513C511.482 435.851 511.911 436.02 512.426 436.02C513.15 436.02 513.739 435.727 514.194 435.142L515.045 435.955C514.763 436.375 514.386 436.702 513.914 436.936C513.446 437.165 512.92 437.28 512.335 437.28ZM512.147 431.256C511.713 431.256 511.363 431.408 511.094 431.711C510.83 432.014 510.661 432.437 510.587 432.978H513.596V432.861C513.561 432.333 513.42 431.934 513.173 431.666C512.926 431.393 512.584 431.256 512.147 431.256ZM519.27 431.562C519.062 431.527 518.847 431.51 518.626 431.51C517.903 431.51 517.415 431.787 517.164 432.341V437.15H515.585V430.119H517.093L517.132 430.905C517.513 430.294 518.041 429.989 518.717 429.989C518.943 429.989 519.129 430.019 519.276 430.08L519.27 431.562ZM500.883 449.141H497.075V453.15H495.431V443.689H501.442V445.014H497.075V447.828H500.883V449.141ZM505.31 447.562C505.102 447.527 504.887 447.51 504.666 447.51C503.943 447.51 503.455 447.787 503.204 448.341V453.15H501.625V446.119H503.133L503.172 446.905C503.553 446.294 504.081 445.989 504.757 445.989C504.982 445.989 505.169 446.019 505.316 446.08L505.31 447.562ZM508.475 453.28C507.474 453.28 506.662 452.966 506.038 452.338C505.419 451.705 505.109 450.865 505.109 449.817V449.622C505.109 448.92 505.243 448.294 505.512 447.744C505.785 447.189 506.166 446.758 506.656 446.45C507.145 446.143 507.691 445.989 508.293 445.989C509.251 445.989 509.989 446.294 510.509 446.905C511.033 447.516 511.295 448.38 511.295 449.498V450.135H506.701C506.749 450.716 506.941 451.175 507.279 451.513C507.622 451.851 508.051 452.02 508.566 452.02C509.29 452.02 509.879 451.727 510.334 451.142L511.185 451.955C510.903 452.375 510.526 452.702 510.054 452.936C509.586 453.165 509.06 453.28 508.475 453.28ZM508.287 447.256C507.853 447.256 507.502 447.408 507.234 447.711C506.97 448.014 506.801 448.437 506.727 448.978H509.736V448.861C509.701 448.333 509.56 447.934 509.313 447.666C509.066 447.393 508.724 447.256 508.287 447.256ZM513.408 453.15H511.829V446.119H513.408V453.15ZM511.732 444.293C511.732 444.05 511.807 443.849 511.959 443.689C512.115 443.528 512.336 443.448 512.622 443.448C512.908 443.448 513.129 443.528 513.285 443.689C513.441 443.849 513.519 444.05 513.519 444.293C513.519 444.531 513.441 444.731 513.285 444.891C513.129 445.047 512.908 445.125 512.622 445.125C512.336 445.125 512.115 445.047 511.959 444.891C511.807 444.731 511.732 444.531 511.732 444.293ZM515.8 446.119L515.846 446.931C516.366 446.303 517.048 445.989 517.893 445.989C519.357 445.989 520.102 446.827 520.128 448.504V453.15H518.549V448.595C518.549 448.149 518.452 447.819 518.257 447.607C518.066 447.391 517.752 447.282 517.314 447.282C516.678 447.282 516.203 447.57 515.891 448.147V453.15H514.312V446.119H515.8ZM520.649 449.583C520.649 448.5 520.9 447.631 521.403 446.977C521.905 446.318 522.579 445.989 523.424 445.989C524.169 445.989 524.771 446.249 525.23 446.769V443.169H526.809V453.15H525.38L525.302 452.422C524.83 452.994 524.199 453.28 523.411 453.28C522.588 453.28 521.92 452.949 521.409 452.286C520.902 451.623 520.649 450.722 520.649 449.583ZM522.228 449.719C522.228 450.434 522.364 450.993 522.637 451.396C522.915 451.794 523.307 451.994 523.814 451.994C524.459 451.994 524.931 451.705 525.23 451.129V448.127C524.94 447.564 524.472 447.282 523.827 447.282C523.315 447.282 522.921 447.486 522.644 447.893C522.367 448.296 522.228 448.905 522.228 449.719ZM529.338 453.15H527.759V443.169H529.338V453.15ZM532.724 450.889L534.154 446.119H535.837L533.043 454.216C532.614 455.399 531.886 455.99 530.859 455.99C530.63 455.99 530.376 455.951 530.099 455.873V454.651L530.398 454.671C530.797 454.671 531.096 454.597 531.295 454.45C531.498 454.307 531.659 454.064 531.776 453.722L532.003 453.118L529.534 446.119H531.236L532.724 450.889Z" fill="black"/>
<path d="M466.316 447.696H376.227C374.463 447.7 372.772 448.402 371.525 449.649C370.278 450.896 369.576 452.587 369.572 454.351V544.44C369.576 546.204 370.278 547.895 371.525 549.142C372.772 550.389 374.463 551.091 376.227 551.095H466.316C468.08 551.091 469.771 550.389 471.018 549.142C472.265 547.895 472.967 546.204 472.971 544.44V454.351C472.967 452.587 472.265 450.896 471.018 449.649C469.771 448.402 468.08 447.7 466.316 447.696V447.696Z" fill="#E6E6E6"/>
<path d="M390.397 489.232H386.511V492.144H391.053V493.456H384.867V483.995H391.008V485.32H386.511V487.933H390.397V489.232ZM393.12 493.456H391.541V483.475H393.12V493.456ZM397.144 493.586C396.143 493.586 395.331 493.272 394.707 492.644C394.087 492.011 393.778 491.171 393.778 490.123V489.928C393.778 489.226 393.912 488.6 394.18 488.05C394.453 487.495 394.835 487.064 395.324 486.756C395.814 486.449 396.36 486.295 396.962 486.295C397.919 486.295 398.658 486.6 399.178 487.211C399.702 487.822 399.964 488.686 399.964 489.804V490.441H395.37C395.417 491.022 395.61 491.481 395.948 491.819C396.29 492.157 396.719 492.326 397.235 492.326C397.958 492.326 398.547 492.033 399.002 491.448L399.854 492.261C399.572 492.681 399.195 493.008 398.723 493.242C398.255 493.471 397.729 493.586 397.144 493.586ZM396.955 487.562C396.522 487.562 396.171 487.714 395.902 488.017C395.638 488.32 395.469 488.743 395.396 489.284H398.404V489.167C398.37 488.639 398.229 488.24 397.982 487.972C397.735 487.699 397.393 487.562 396.955 487.562ZM400.121 489.889C400.121 488.797 400.376 487.926 400.888 487.276C401.403 486.622 402.085 486.295 402.935 486.295C403.736 486.295 404.366 486.574 404.826 487.133L404.897 486.425H406.32V493.242C406.32 494.165 406.032 494.892 405.456 495.425C404.884 495.958 404.111 496.225 403.136 496.225C402.62 496.225 402.116 496.116 401.622 495.9C401.132 495.687 400.76 495.408 400.504 495.061L401.251 494.113C401.737 494.689 402.335 494.977 403.045 494.977C403.569 494.977 403.983 494.834 404.286 494.548C404.589 494.266 404.741 493.851 404.741 493.3V492.826C404.286 493.333 403.68 493.586 402.922 493.586C402.098 493.586 401.425 493.259 400.901 492.605C400.381 491.951 400.121 491.045 400.121 489.889ZM401.693 490.025C401.693 490.731 401.836 491.288 402.122 491.695C402.412 492.098 402.813 492.3 403.324 492.3C403.961 492.3 404.433 492.027 404.741 491.481V488.388C404.442 487.855 403.974 487.588 403.337 487.588C402.818 487.588 402.412 487.794 402.122 488.206C401.836 488.617 401.693 489.224 401.693 490.025ZM411.351 493.456C411.281 493.322 411.221 493.103 411.169 492.8C410.666 493.324 410.051 493.586 409.323 493.586C408.617 493.586 408.041 493.385 407.595 492.982C407.148 492.579 406.925 492.081 406.925 491.487C406.925 490.738 407.203 490.164 407.757 489.765C408.316 489.362 409.113 489.161 410.149 489.161H411.117V488.699C411.117 488.336 411.015 488.045 410.811 487.829C410.608 487.608 410.298 487.497 409.882 487.497C409.523 487.497 409.228 487.588 408.998 487.77C408.769 487.948 408.654 488.175 408.654 488.453H407.075C407.075 488.067 407.203 487.707 407.458 487.374C407.714 487.036 408.06 486.772 408.498 486.581C408.94 486.39 409.432 486.295 409.973 486.295C410.796 486.295 411.453 486.503 411.942 486.919C412.432 487.33 412.683 487.911 412.696 488.66V491.832C412.696 492.464 412.785 492.969 412.962 493.346V493.456H411.351ZM409.616 492.319C409.928 492.319 410.22 492.243 410.493 492.092C410.77 491.94 410.978 491.736 411.117 491.481V490.155H410.265C409.681 490.155 409.241 490.257 408.946 490.461C408.652 490.664 408.504 490.952 408.504 491.325C408.504 491.628 408.604 491.871 408.803 492.053C409.007 492.23 409.278 492.319 409.616 492.319ZM415.017 486.425L415.062 487.237C415.582 486.609 416.264 486.295 417.109 486.295C418.573 486.295 419.319 487.133 419.345 488.81V493.456H417.765V488.901C417.765 488.455 417.668 488.125 417.473 487.913C417.282 487.697 416.968 487.588 416.531 487.588C415.894 487.588 415.419 487.876 415.108 488.453V493.456H413.528V486.425H415.017ZM422.14 484.716V486.425H423.381V487.595H422.14V491.52C422.14 491.788 422.192 491.983 422.296 492.105C422.404 492.222 422.594 492.28 422.867 492.28C423.049 492.28 423.234 492.258 423.42 492.215V493.437C423.06 493.536 422.714 493.586 422.38 493.586C421.167 493.586 420.561 492.917 420.561 491.578V487.595H419.404V486.425H420.561V484.716H422.14ZM384.867 509.456V499.995H387.661C388.497 499.995 389.238 500.181 389.883 500.553C390.533 500.926 391.036 501.455 391.391 502.139C391.746 502.824 391.924 503.608 391.924 504.491V504.966C391.924 505.863 391.744 506.651 391.385 507.331C391.029 508.011 390.52 508.536 389.857 508.904C389.199 509.272 388.443 509.456 387.589 509.456H384.867ZM386.511 501.32V508.144H387.583C388.445 508.144 389.106 507.875 389.565 507.338C390.029 506.796 390.265 506.021 390.273 505.011V504.485C390.273 503.458 390.05 502.674 389.604 502.133C389.158 501.591 388.51 501.32 387.661 501.32H386.511ZM395.707 509.586C394.706 509.586 393.894 509.272 393.27 508.644C392.65 508.011 392.341 507.171 392.341 506.123V505.928C392.341 505.226 392.475 504.6 392.743 504.05C393.016 503.495 393.398 503.064 393.887 502.756C394.377 502.449 394.923 502.295 395.525 502.295C396.482 502.295 397.221 502.6 397.741 503.211C398.265 503.822 398.527 504.686 398.527 505.804V506.441H393.933C393.98 507.022 394.173 507.481 394.511 507.819C394.853 508.157 395.282 508.326 395.798 508.326C396.521 508.326 397.11 508.033 397.565 507.448L398.417 508.261C398.135 508.681 397.758 509.008 397.286 509.242C396.818 509.471 396.292 509.586 395.707 509.586ZM395.518 503.562C395.085 503.562 394.734 503.714 394.466 504.017C394.201 504.32 394.032 504.743 393.959 505.284H396.967V505.167C396.933 504.639 396.792 504.24 396.545 503.972C396.298 503.699 395.956 503.562 395.518 503.562ZM402.901 507.546C402.901 507.264 402.784 507.05 402.55 506.902C402.321 506.755 401.937 506.625 401.4 506.512C400.863 506.4 400.415 506.257 400.055 506.084C399.266 505.702 398.872 505.15 398.872 504.427C398.872 503.82 399.128 503.313 399.639 502.906C400.15 502.499 400.8 502.295 401.589 502.295C402.429 502.295 403.107 502.503 403.623 502.919C404.142 503.335 404.402 503.874 404.402 504.537H402.823C402.823 504.234 402.711 503.982 402.485 503.783C402.26 503.58 401.961 503.478 401.589 503.478C401.242 503.478 400.958 503.558 400.737 503.718C400.521 503.878 400.412 504.093 400.412 504.362C400.412 504.604 400.514 504.793 400.718 504.927C400.921 505.061 401.333 505.198 401.952 505.336C402.572 505.471 403.057 505.633 403.408 505.824C403.763 506.01 404.025 506.235 404.194 506.5C404.368 506.764 404.454 507.084 404.454 507.461C404.454 508.094 404.192 508.607 403.668 509.001C403.144 509.391 402.457 509.586 401.608 509.586C401.032 509.586 400.519 509.482 400.068 509.274C399.617 509.066 399.266 508.78 399.015 508.417C398.764 508.053 398.638 507.661 398.638 507.24H400.172C400.194 507.613 400.334 507.901 400.594 508.105C400.854 508.304 401.199 508.404 401.628 508.404C402.043 508.404 402.36 508.326 402.576 508.17C402.793 508.009 402.901 507.801 402.901 507.546ZM406.717 509.456H405.137V502.425H406.717V509.456ZM405.04 500.599C405.04 500.356 405.116 500.155 405.267 499.995C405.423 499.834 405.644 499.754 405.93 499.754C406.216 499.754 406.437 499.834 406.593 499.995C406.749 500.155 406.827 500.356 406.827 500.599C406.827 500.837 406.749 501.037 406.593 501.197C406.437 501.353 406.216 501.431 405.93 501.431C405.644 501.431 405.423 501.353 405.267 501.197C405.116 501.037 405.04 500.837 405.04 500.599ZM407.367 505.889C407.367 504.797 407.623 503.926 408.134 503.276C408.65 502.622 409.332 502.295 410.181 502.295C410.982 502.295 411.613 502.574 412.072 503.133L412.144 502.425H413.567V509.242C413.567 510.165 413.279 510.892 412.702 511.425C412.131 511.958 411.357 512.225 410.382 512.225C409.867 512.225 409.362 512.116 408.868 511.9C408.379 511.687 408.006 511.408 407.751 511.061L408.498 510.113C408.983 510.689 409.581 510.977 410.291 510.977C410.816 510.977 411.229 510.834 411.533 510.548C411.836 510.266 411.988 509.851 411.988 509.3V508.826C411.533 509.333 410.926 509.586 410.168 509.586C409.345 509.586 408.671 509.259 408.147 508.605C407.627 507.951 407.367 507.045 407.367 505.889ZM408.94 506.025C408.94 506.731 409.083 507.288 409.369 507.695C409.659 508.098 410.06 508.3 410.571 508.3C411.208 508.3 411.68 508.027 411.988 507.481V504.388C411.689 503.855 411.221 503.588 410.584 503.588C410.064 503.588 409.659 503.794 409.369 504.206C409.083 504.617 408.94 505.224 408.94 506.025ZM415.861 502.425L415.907 503.237C416.427 502.609 417.109 502.295 417.954 502.295C419.418 502.295 420.163 503.133 420.189 504.81V509.456H418.61V504.901C418.61 504.455 418.513 504.125 418.318 503.913C418.127 503.697 417.813 503.588 417.376 503.588C416.739 503.588 416.264 503.876 415.952 504.453V509.456H414.373V502.425H415.861Z" fill="black"/>
<path d="M342.443 413.913H252.354C250.589 413.911 248.898 413.209 247.65 411.962C246.403 410.714 245.701 409.023 245.699 407.258V317.169C245.701 315.405 246.403 313.713 247.65 312.466C248.898 311.218 250.589 310.516 252.354 310.514H342.443C344.207 310.516 345.899 311.218 347.146 312.466C348.394 313.713 349.096 315.405 349.098 317.169V407.258C349.096 409.023 348.394 410.714 347.146 411.962C345.899 413.209 344.207 413.911 342.443 413.913Z" fill="#6C63FF"/>
<path d="M207.56 662.773L219.559 659.091L211.066 611.059L193.357 616.493L207.56 662.773Z" fill="#A0616A"/>
<path d="M246.119 663.131L208.409 674.704L203.937 660.134L227.077 653.033C228.991 652.446 231.001 652.241 232.993 652.431C234.986 652.62 236.921 653.201 238.689 654.138C240.458 655.076 242.024 656.353 243.298 657.896C244.573 659.439 245.531 661.218 246.119 663.131V663.131V663.131Z" fill="#2F2E41"/>
<path d="M105.188 663.05L117.739 663.049L123.709 614.638L105.186 614.639L105.188 663.05Z" fill="#A0616A"/>
<path d="M141.944 674.702L102.499 674.704L102.498 659.464L126.703 659.462C128.705 659.462 130.687 659.857 132.536 660.622C134.385 661.388 136.065 662.511 137.48 663.926C138.895 665.341 140.018 667.021 140.784 668.87C141.55 670.719 141.944 672.701 141.944 674.702L141.944 674.702Z" fill="#2F2E41"/>
<path d="M104.287 522.717C103.256 521.813 102.436 520.694 101.884 519.439C101.332 518.183 101.062 516.822 101.093 515.451C101.124 514.081 101.455 512.733 102.064 511.504C102.672 510.275 103.542 509.194 104.613 508.338L114.344 385.801L134.134 390.745L118.289 510.277C119.608 512.171 120.187 514.484 119.915 516.776C119.643 519.069 118.539 521.182 116.814 522.716C115.088 524.249 112.859 525.096 110.551 525.097C108.242 525.097 106.013 524.25 104.287 522.717V522.717Z" fill="#A0616A"/>
<path d="M122.054 382.032C116.38 374.243 116.205 363.515 122.317 356.065C126.305 351.203 132.977 347.313 144.115 347.313C173.804 347.313 185.065 370.859 185.065 370.859C185.065 370.859 197.35 393.381 190.184 413.856C183.017 434.331 183.017 436.379 183.017 436.379L135.925 432.284C135.925 432.284 143.87 411.981 122.054 382.032Z" fill="#CCCCCC"/>
<path d="M107.532 402.413L117.677 369.223C118.356 367 119.515 364.954 121.073 363.229C122.63 361.504 124.547 360.142 126.688 359.239C128.83 358.336 131.143 357.915 133.466 358.004C135.788 358.094 138.062 358.693 140.128 359.758V359.758C143.711 361.614 146.455 364.763 147.802 368.567C149.15 372.371 149 376.545 147.384 380.243L134.486 409.616L107.532 402.413Z" fill="#CCCCCC"/>
<path d="M181.994 431.26L221.92 638.057L200.421 644.199L148.21 508.041L124.664 647.271L102.141 650.342C102.141 650.342 92.2619 466.124 135.925 432.284L181.994 431.26Z" fill="#2F2E41"/>
<path d="M239.458 421.568C239.093 422.002 238.764 422.463 238.472 422.949L187.761 425.408L177.996 395.597L161.041 403.655L176.999 448.056L239.716 435.791C241.189 437.4 243.118 438.522 245.245 439.008C247.372 439.494 249.597 439.322 251.623 438.513C253.65 437.704 255.382 436.297 256.589 434.479C257.796 432.662 258.422 430.52 258.382 428.339C258.343 426.157 257.64 424.039 256.368 422.267C255.095 420.494 253.313 419.151 251.259 418.416C249.204 417.681 246.975 417.589 244.867 418.152C242.759 418.715 240.872 419.906 239.458 421.568V421.568Z" fill="#A0616A"/>
<path d="M152.561 346.122C166.126 346.122 177.122 335.126 177.122 321.561C177.122 307.996 166.126 297 152.561 297C138.996 297 128 307.996 128 321.561C128 335.126 138.996 346.122 152.561 346.122Z" fill="#A0616A"/>
<path d="M153.946 373.832C153.674 371.524 153.913 369.185 154.645 366.979C155.377 364.773 156.585 362.755 158.183 361.068C159.78 359.38 161.729 358.064 163.892 357.212C166.054 356.361 168.377 355.995 170.697 356.14V356.14C174.724 356.398 178.502 358.179 181.265 361.12C184.029 364.061 185.57 367.943 185.577 371.979V404.058L158.001 408.301L153.946 373.832Z" fill="#CCCCCC"/>
<path d="M149.447 338.503C145.673 338.486 142.762 334.513 142.931 330.743C143.1 326.973 145.633 323.656 148.683 321.434C151.734 319.212 155.312 317.859 158.714 316.226C162.116 314.592 165.489 312.555 167.589 309.42C168.858 307.367 169.616 305.041 169.798 302.635C169.98 300.229 169.582 297.814 168.637 295.595C166.682 291.155 163.326 287.478 159.082 285.128C152.778 281.438 145.315 280.258 138.18 281.823C131.045 283.388 124.762 287.584 120.582 293.574L116.274 305.304C111.884 310.582 111.188 318.421 113.886 324.734C116.585 331.047 122.33 335.797 128.814 338.055C135.392 340.168 142.433 340.38 149.126 338.664" fill="#2F2E41"/>
<path d="M126.467 299.436C124.616 296.468 121.406 294.58 118.087 293.473C114.243 292.189 110.154 291.81 106.139 292.366C102.125 292.921 98.2922 294.395 94.9405 296.674C91.5889 298.953 88.8084 301.975 86.8156 305.504C84.8228 309.033 83.6716 312.975 83.4514 317.022C83.0996 323.486 85.1238 329.807 86.3132 336.171C87.5026 342.535 87.7392 349.563 84.2304 355.004C81.5579 359.148 77.1012 361.757 72.7022 363.985C69.0359 365.841 65.0701 367.584 60.9771 367.214C56.8841 366.844 52.7703 363.602 52.8789 359.494C51.5087 362.439 50.5835 365.572 50.1336 368.79C49.8457 372.021 50.642 375.507 52.9756 377.76C56.3673 381.034 61.7414 380.795 66.4027 380.088C76.4937 378.558 86.712 375.691 94.6842 369.318C102.656 362.945 107.947 352.452 105.847 342.464C104.97 338.292 102.909 334.483 101.244 330.558C99.578 326.633 98.2778 322.34 99.0429 318.146C99.4957 315.985 100.417 313.95 101.743 312.184C103.068 310.419 104.765 308.966 106.713 307.927C110.654 305.878 115.163 305.195 119.533 305.983C122.399 306.453 125.977 307.184 127.676 304.829C128.127 304.083 128.357 303.225 128.34 302.354C128.323 301.483 128.06 300.634 127.581 299.906C126.6 298.467 125.351 297.229 123.903 296.262" fill="#2F2E41"/>
<path d="M315.81 676.345H1.21897C1.0586 676.346 0.899697 676.314 0.751398 676.253C0.603099 676.192 0.468312 676.103 0.354746 675.989C0.24118 675.876 0.151073 675.742 0.0895931 675.593C0.0281133 675.445 -0.00354004 675.286 -0.00354004 675.126C-0.00354004 674.966 0.0281133 674.807 0.0895931 674.659C0.151073 674.511 0.24118 674.376 0.354746 674.263C0.468312 674.15 0.603099 674.06 0.751398 673.999C0.899697 673.938 1.0586 673.907 1.21897 673.907H315.81C315.97 673.907 316.129 673.938 316.278 673.999C316.426 674.06 316.561 674.15 316.674 674.263C316.788 674.376 316.878 674.511 316.939 674.659C317.001 674.807 317.032 674.966 317.032 675.126C317.032 675.286 317.001 675.445 316.939 675.593C316.878 675.742 316.788 675.876 316.674 675.989C316.561 676.103 316.426 676.192 316.278 676.253C316.129 676.314 315.97 676.346 315.81 676.345V676.345Z" fill="#3F3D56"/>
<path d="M259.97 348.084V338.623H263.212C264.282 338.623 265.097 338.837 265.656 339.266C266.215 339.695 266.494 340.334 266.494 341.183C266.494 341.616 266.377 342.006 266.143 342.353C265.909 342.699 265.567 342.968 265.116 343.159C265.628 343.297 266.022 343.559 266.299 343.945C266.581 344.326 266.722 344.785 266.722 345.322C266.722 346.211 266.436 346.893 265.864 347.369C265.296 347.846 264.482 348.084 263.42 348.084H259.97ZM261.614 343.815V346.772H263.44C263.955 346.772 264.358 346.644 264.649 346.388C264.939 346.133 265.084 345.777 265.084 345.322C265.084 344.339 264.581 343.837 263.576 343.815H261.614ZM261.614 342.606H263.225C263.737 342.606 264.135 342.491 264.421 342.262C264.711 342.028 264.856 341.699 264.856 341.274C264.856 340.806 264.722 340.468 264.454 340.26C264.189 340.052 263.776 339.948 263.212 339.948H261.614V342.606ZM270.511 348.214C269.51 348.214 268.698 347.9 268.074 347.272C267.454 346.639 267.145 345.799 267.145 344.751V344.556C267.145 343.854 267.279 343.228 267.548 342.678C267.821 342.123 268.202 341.692 268.691 341.384C269.181 341.077 269.727 340.923 270.329 340.923C271.286 340.923 272.025 341.228 272.545 341.839C273.069 342.45 273.331 343.314 273.331 344.432V345.069H268.737C268.784 345.65 268.977 346.109 269.315 346.447C269.657 346.785 270.086 346.954 270.602 346.954C271.325 346.954 271.915 346.661 272.369 346.076L273.221 346.889C272.939 347.309 272.562 347.636 272.09 347.87C271.622 348.099 271.096 348.214 270.511 348.214ZM270.322 342.19C269.889 342.19 269.538 342.342 269.27 342.645C269.005 342.948 268.836 343.371 268.763 343.912H271.772V343.795C271.737 343.267 271.596 342.868 271.349 342.6C271.102 342.327 270.76 342.19 270.322 342.19ZM277.965 348.084C277.896 347.95 277.835 347.731 277.783 347.428C277.281 347.952 276.666 348.214 275.938 348.214C275.232 348.214 274.655 348.013 274.209 347.61C273.763 347.207 273.54 346.709 273.54 346.115C273.54 345.366 273.817 344.792 274.372 344.393C274.931 343.99 275.728 343.789 276.763 343.789H277.731V343.327C277.731 342.964 277.63 342.673 277.426 342.457C277.222 342.236 276.913 342.125 276.497 342.125C276.137 342.125 275.842 342.216 275.613 342.398C275.383 342.576 275.268 342.803 275.268 343.081H273.689C273.689 342.695 273.817 342.335 274.073 342.002C274.328 341.664 274.675 341.4 275.113 341.209C275.554 341.018 276.046 340.923 276.588 340.923C277.411 340.923 278.067 341.131 278.557 341.547C279.046 341.958 279.297 342.539 279.31 343.288V346.46C279.31 347.092 279.399 347.597 279.577 347.974V348.084H277.965ZM276.23 346.947C276.542 346.947 276.835 346.871 277.108 346.72C277.385 346.568 277.593 346.364 277.731 346.109V344.783H276.88C276.295 344.783 275.855 344.885 275.561 345.089C275.266 345.292 275.119 345.58 275.119 345.953C275.119 346.256 275.219 346.499 275.418 346.681C275.622 346.858 275.892 346.947 276.23 346.947ZM284.425 347.395C283.962 347.941 283.303 348.214 282.45 348.214C281.687 348.214 281.109 347.991 280.715 347.545C280.325 347.099 280.13 346.453 280.13 345.608V341.053H281.709V345.589C281.709 346.481 282.08 346.928 282.82 346.928C283.587 346.928 284.105 346.652 284.373 346.102V341.053H285.953V348.084H284.464L284.425 347.395ZM288.741 339.344V341.053H289.982V342.223H288.741V346.148C288.741 346.416 288.793 346.611 288.897 346.733C289.005 346.85 289.196 346.908 289.469 346.908C289.651 346.908 289.835 346.886 290.021 346.843V348.065C289.662 348.164 289.315 348.214 288.982 348.214C287.769 348.214 287.162 347.545 287.162 346.206V342.223H286.005V341.053H287.162V339.344H288.741ZM292.076 348.084H290.497V341.053H292.076V348.084ZM290.399 339.227C290.399 338.984 290.475 338.783 290.626 338.623C290.782 338.462 291.003 338.382 291.289 338.382C291.575 338.382 291.796 338.462 291.952 338.623C292.108 338.783 292.186 338.984 292.186 339.227C292.186 339.465 292.108 339.665 291.952 339.825C291.796 339.981 291.575 340.059 291.289 340.059C291.003 340.059 290.782 339.981 290.626 339.825C290.475 339.665 290.399 339.465 290.399 339.227ZM293.558 348.084V342.223H292.486V341.053H293.558V340.41C293.558 339.63 293.775 339.028 294.208 338.603C294.641 338.179 295.248 337.966 296.027 337.966C296.305 337.966 296.599 338.005 296.911 338.083L296.872 339.318C296.699 339.283 296.497 339.266 296.268 339.266C295.514 339.266 295.137 339.654 295.137 340.429V341.053H296.567V342.223H295.137V348.084H293.558ZM301.181 347.395C300.718 347.941 300.059 348.214 299.206 348.214C298.443 348.214 297.865 347.991 297.471 347.545C297.081 347.099 296.886 346.453 296.886 345.608V341.053H298.465V345.589C298.465 346.481 298.836 346.928 299.576 346.928C300.343 346.928 300.861 346.652 301.129 346.102V341.053H302.709V348.084H301.22L301.181 347.395ZM305.198 348.084H303.619V338.103H305.198V348.084ZM265.994 361.907L267.111 357.053H268.652L266.735 364.084H265.435L263.927 359.256L262.446 364.084H261.146L259.222 357.053H260.762L261.9 361.855L263.342 357.053H264.532L265.994 361.907ZM272.005 364.214C271.005 364.214 270.192 363.9 269.569 363.272C268.949 362.639 268.639 361.799 268.639 360.751V360.556C268.639 359.854 268.774 359.228 269.042 358.678C269.315 358.123 269.696 357.692 270.186 357.384C270.675 357.077 271.221 356.923 271.824 356.923C272.781 356.923 273.52 357.228 274.039 357.839C274.564 358.45 274.826 359.314 274.826 360.432V361.069H270.231C270.279 361.65 270.472 362.109 270.81 362.447C271.152 362.785 271.581 362.954 272.096 362.954C272.82 362.954 273.409 362.661 273.864 362.076L274.715 362.889C274.434 363.309 274.057 363.636 273.585 363.87C273.117 364.099 272.59 364.214 272.005 364.214ZM271.817 358.19C271.384 358.19 271.033 358.342 270.764 358.645C270.5 358.948 270.331 359.371 270.257 359.912H273.266V359.795C273.232 359.267 273.091 358.868 272.844 358.6C272.597 358.327 272.255 358.19 271.817 358.19ZM281.429 360.64C281.429 361.732 281.184 362.6 280.695 363.246C280.209 363.892 279.54 364.214 278.687 364.214C277.863 364.214 277.222 363.917 276.763 363.324L276.685 364.084H275.255V354.103H276.835V357.729C277.289 357.192 277.902 356.923 278.674 356.923C279.531 356.923 280.205 357.241 280.695 357.878C281.184 358.515 281.429 359.405 281.429 360.549V360.64ZM279.85 360.504C279.85 359.741 279.716 359.169 279.447 358.788C279.178 358.407 278.788 358.216 278.277 358.216C277.593 358.216 277.112 358.515 276.835 359.113V362.011C277.116 362.622 277.601 362.928 278.29 362.928C278.784 362.928 279.165 362.743 279.434 362.375C279.703 362.007 279.841 361.45 279.85 360.705V360.504ZM288.117 360.64C288.117 361.728 287.87 362.596 287.376 363.246C286.882 363.892 286.219 364.214 285.387 364.214C284.616 364.214 283.999 363.961 283.535 363.454V366.788H281.956V357.053H283.412L283.477 357.768C283.94 357.205 284.571 356.923 285.368 356.923C286.226 356.923 286.897 357.244 287.382 357.885C287.872 358.522 288.117 359.408 288.117 360.543V360.64ZM286.544 360.504C286.544 359.802 286.403 359.245 286.122 358.834C285.844 358.422 285.446 358.216 284.926 358.216C284.28 358.216 283.817 358.483 283.535 359.016V362.135C283.821 362.681 284.289 362.954 284.939 362.954C285.441 362.954 285.833 362.752 286.115 362.349C286.401 361.942 286.544 361.327 286.544 360.504ZM292.861 364.084C292.792 363.95 292.731 363.731 292.679 363.428C292.177 363.952 291.561 364.214 290.834 364.214C290.128 364.214 289.551 364.013 289.105 363.61C288.659 363.207 288.436 362.709 288.436 362.115C288.436 361.366 288.713 360.792 289.268 360.393C289.826 359.99 290.624 359.789 291.659 359.789H292.627V359.327C292.627 358.964 292.525 358.673 292.322 358.457C292.118 358.236 291.808 358.125 291.393 358.125C291.033 358.125 290.738 358.216 290.509 358.398C290.279 358.576 290.164 358.803 290.164 359.081H288.585C288.585 358.695 288.713 358.335 288.969 358.002C289.224 357.664 289.571 357.4 290.008 357.209C290.45 357.018 290.942 356.923 291.484 356.923C292.307 356.923 292.963 357.131 293.453 357.547C293.942 357.958 294.193 358.539 294.206 359.288V362.46C294.206 363.092 294.295 363.597 294.473 363.974V364.084H292.861ZM291.126 362.947C291.438 362.947 291.73 362.871 292.003 362.72C292.281 362.568 292.489 362.364 292.627 362.109V360.783H291.776C291.191 360.783 290.751 360.885 290.457 361.089C290.162 361.292 290.015 361.58 290.015 361.953C290.015 362.256 290.115 362.499 290.314 362.681C290.517 362.858 290.788 362.947 291.126 362.947ZM294.785 360.517C294.785 359.425 295.041 358.554 295.552 357.904C296.068 357.25 296.75 356.923 297.599 356.923C298.401 356.923 299.031 357.202 299.49 357.761L299.562 357.053H300.985V363.87C300.985 364.793 300.697 365.52 300.121 366.053C299.549 366.586 298.775 366.853 297.801 366.853C297.285 366.853 296.78 366.744 296.287 366.528C295.797 366.315 295.424 366.036 295.169 365.689L295.916 364.741C296.401 365.317 296.999 365.605 297.71 365.605C298.234 365.605 298.648 365.462 298.951 365.176C299.254 364.894 299.406 364.479 299.406 363.928V363.454C298.951 363.961 298.344 364.214 297.586 364.214C296.763 364.214 296.089 363.887 295.565 363.233C295.045 362.579 294.785 361.673 294.785 360.517ZM296.358 360.653C296.358 361.359 296.501 361.916 296.787 362.323C297.077 362.726 297.478 362.928 297.989 362.928C298.626 362.928 299.098 362.655 299.406 362.109V359.016C299.107 358.483 298.639 358.216 298.002 358.216C297.482 358.216 297.077 358.422 296.787 358.834C296.501 359.245 296.358 359.852 296.358 360.653ZM304.911 364.214C303.91 364.214 303.098 363.9 302.474 363.272C301.854 362.639 301.545 361.799 301.545 360.751V360.556C301.545 359.854 301.679 359.228 301.947 358.678C302.22 358.123 302.602 357.692 303.091 357.384C303.581 357.077 304.127 356.923 304.729 356.923C305.686 356.923 306.425 357.228 306.945 357.839C307.469 358.45 307.731 359.314 307.731 360.432V361.069H303.137C303.184 361.65 303.377 362.109 303.715 362.447C304.057 362.785 304.486 362.954 305.002 362.954C305.725 362.954 306.314 362.661 306.769 362.076L307.621 362.889C307.339 363.309 306.962 363.636 306.49 363.87C306.022 364.099 305.496 364.214 304.911 364.214ZM304.722 358.19C304.289 358.19 303.938 358.342 303.67 358.645C303.405 358.948 303.236 359.371 303.163 359.912H306.171V359.795C306.137 359.267 305.996 358.868 305.749 358.6C305.502 358.327 305.16 358.19 304.722 358.19ZM312.105 362.174C312.105 361.892 311.988 361.678 311.754 361.53C311.525 361.383 311.141 361.253 310.604 361.141C310.067 361.028 309.619 360.885 309.259 360.712C308.47 360.33 308.076 359.778 308.076 359.055C308.076 358.448 308.332 357.941 308.843 357.534C309.354 357.127 310.004 356.923 310.793 356.923C311.633 356.923 312.311 357.131 312.827 357.547C313.346 357.963 313.606 358.502 313.606 359.165H312.027C312.027 358.862 311.915 358.61 311.689 358.411C311.464 358.208 311.165 358.106 310.793 358.106C310.446 358.106 310.162 358.186 309.941 358.346C309.725 358.507 309.616 358.721 309.616 358.99C309.616 359.232 309.718 359.421 309.922 359.555C310.125 359.689 310.537 359.826 311.156 359.964C311.776 360.099 312.261 360.261 312.612 360.452C312.967 360.638 313.229 360.863 313.398 361.128C313.572 361.392 313.658 361.712 313.658 362.089C313.658 362.722 313.396 363.235 312.872 363.629C312.348 364.019 311.661 364.214 310.812 364.214C310.236 364.214 309.722 364.11 309.272 363.902C308.821 363.694 308.47 363.408 308.219 363.045C307.968 362.681 307.842 362.289 307.842 361.868H309.376C309.398 362.241 309.538 362.529 309.798 362.733C310.058 362.932 310.403 363.032 310.832 363.032C311.247 363.032 311.564 362.954 311.78 362.798C311.997 362.637 312.105 362.429 312.105 362.174Z" fill="black" fill-opacity="0.69"/>
</g>
<defs>
<clipPath id="clip0">
<rect width="812.979" height="517.345" fill="white" transform="translate(0 159)"/>
</clipPath>
</defs>
</svg>
