<svg width="91" height="121" viewBox="0 0 91 121" fill="none" xmlns="http://www.w3.org/2000/svg">
<path d="M83.7867 12.9338C87.3583 12.9338 90.2536 10.0385 90.2536 6.46689C90.2536 2.89532 87.3583 0 83.7867 0C80.2151 0 77.3198 2.89532 77.3198 6.46689C77.3198 10.0385 80.2151 12.9338 83.7867 12.9338Z" fill="#A30EFF"/>
<path d="M58.0135 12.9338C61.5851 12.9338 64.4804 10.0385 64.4804 6.46689C64.4804 2.89532 61.5851 0 58.0135 0C54.442 0 51.5466 2.89532 51.5466 6.46689C51.5466 10.0385 54.442 12.9338 58.0135 12.9338Z" fill="#A30EFF"/>
<path d="M32.2403 12.9338C35.8119 12.9338 38.7072 10.0385 38.7072 6.46689C38.7072 2.89532 35.8119 0 32.2403 0C28.6688 0 25.7734 2.89532 25.7734 6.46689C25.7734 10.0385 28.6688 12.9338 32.2403 12.9338Z" fill="#A30EFF"/>
<path d="M6.46689 12.9338C10.0385 12.9338 12.9338 10.0385 12.9338 6.46689C12.9338 2.89532 10.0385 0 6.46689 0C2.89532 0 0 2.89532 0 6.46689C0 10.0385 2.89532 12.9338 6.46689 12.9338Z" fill="#A30EFF"/>
<path d="M83.7867 39.9338C87.3583 39.9338 90.2536 37.0385 90.2536 33.4669C90.2536 29.8953 87.3583 27 83.7867 27C80.2151 27 77.3198 29.8953 77.3198 33.4669C77.3198 37.0385 80.2151 39.9338 83.7867 39.9338Z" fill="#A30EFF"/>
<path d="M58.0135 39.9338C61.5851 39.9338 64.4804 37.0385 64.4804 33.4669C64.4804 29.8953 61.5851 27 58.0135 27C54.442 27 51.5466 29.8953 51.5466 33.4669C51.5466 37.0385 54.442 39.9338 58.0135 39.9338Z" fill="#A30EFF"/>
<path d="M32.2403 39.9338C35.8119 39.9338 38.7072 37.0385 38.7072 33.4669C38.7072 29.8953 35.8119 27 32.2403 27C28.6688 27 25.7734 29.8953 25.7734 33.4669C25.7734 37.0385 28.6688 39.9338 32.2403 39.9338Z" fill="#A30EFF"/>
<path d="M6.46689 39.9338C10.0385 39.9338 12.9338 37.0385 12.9338 33.4669C12.9338 29.8953 10.0385 27 6.46689 27C2.89532 27 0 29.8953 0 33.4669C0 37.0385 2.89532 39.9338 6.46689 39.9338Z" fill="#A30EFF"/>
<path d="M83.7867 66.9338C87.3583 66.9338 90.2536 64.0385 90.2536 60.4669C90.2536 56.8953 87.3583 54 83.7867 54C80.2151 54 77.3198 56.8953 77.3198 60.4669C77.3198 64.0385 80.2151 66.9338 83.7867 66.9338Z" fill="#A30EFF"/>
<path d="M58.0135 66.9338C61.5851 66.9338 64.4804 64.0385 64.4804 60.4669C64.4804 56.8953 61.5851 54 58.0135 54C54.442 54 51.5466 56.8953 51.5466 60.4669C51.5466 64.0385 54.442 66.9338 58.0135 66.9338Z" fill="#A30EFF"/>
<path d="M32.2403 66.9338C35.8119 66.9338 38.7072 64.0385 38.7072 60.4669C38.7072 56.8953 35.8119 54 32.2403 54C28.6688 54 25.7734 56.8953 25.7734 60.4669C25.7734 64.0385 28.6688 66.9338 32.2403 66.9338Z" fill="#A30EFF"/>
<path d="M6.46689 66.9338C10.0385 66.9338 12.9338 64.0385 12.9338 60.4669C12.9338 56.8953 10.0385 54 6.46689 54C2.89532 54 0 56.8953 0 60.4669C0 64.0385 2.89532 66.9338 6.46689 66.9338Z" fill="#A30EFF"/>
<path d="M83.7867 93.9338C87.3583 93.9338 90.2536 91.0384 90.2536 87.4669C90.2536 83.8953 87.3583 81 83.7867 81C80.2151 81 77.3198 83.8953 77.3198 87.4669C77.3198 91.0384 80.2151 93.9338 83.7867 93.9338Z" fill="#A30EFF"/>
<path d="M58.0135 93.9338C61.5851 93.9338 64.4804 91.0384 64.4804 87.4669C64.4804 83.8953 61.5851 81 58.0135 81C54.442 81 51.5466 83.8953 51.5466 87.4669C51.5466 91.0384 54.442 93.9338 58.0135 93.9338Z" fill="#A30EFF"/>
<path d="M32.2403 93.9338C35.8119 93.9338 38.7072 91.0384 38.7072 87.4669C38.7072 83.8953 35.8119 81 32.2403 81C28.6688 81 25.7734 83.8953 25.7734 87.4669C25.7734 91.0384 28.6688 93.9338 32.2403 93.9338Z" fill="#A30EFF"/>
<path d="M6.46689 93.9338C10.0385 93.9338 12.9338 91.0384 12.9338 87.4669C12.9338 83.8953 10.0385 81 6.46689 81C2.89532 81 0 83.8953 0 87.4669C0 91.0384 2.89532 93.9338 6.46689 93.9338Z" fill="#A30EFF"/>
<path d="M83.7867 120.934C87.3583 120.934 90.2536 118.038 90.2536 114.467C90.2536 110.895 87.3583 108 83.7867 108C80.2151 108 77.3198 110.895 77.3198 114.467C77.3198 118.038 80.2151 120.934 83.7867 120.934Z" fill="#A30EFF"/>
<path d="M58.0135 120.934C61.5851 120.934 64.4804 118.038 64.4804 114.467C64.4804 110.895 61.5851 108 58.0135 108C54.442 108 51.5466 110.895 51.5466 114.467C51.5466 118.038 54.442 120.934 58.0135 120.934Z" fill="#A30EFF"/>
<path d="M32.2403 120.934C35.8119 120.934 38.7072 118.038 38.7072 114.467C38.7072 110.895 35.8119 108 32.2403 108C28.6688 108 25.7734 110.895 25.7734 114.467C25.7734 118.038 28.6688 120.934 32.2403 120.934Z" fill="#A30EFF"/>
<path d="M6.46689 120.934C10.0385 120.934 12.9338 118.038 12.9338 114.467C12.9338 110.895 10.0385 108 6.46689 108C2.89532 108 0 110.895 0 114.467C0 118.038 2.89532 120.934 6.46689 120.934Z" fill="#A30EFF"/>
</svg>
